<svg xmlns="http://www.w3.org/2000/svg" xmlns:xlink="http://www.w3.org/1999/xlink" xmlns:s="https://github.com/nturley/netlistsvg" width="1321" height="767">
  <style>svg {
    stroke:#000;
    fill:none;
  }
  text {
    fill:#000;
    stroke:none;
    font-size:10px;
    font-weight: bold;
    font-family: "Courier New", monospace;
  }
  .nodelabel {
    text-anchor: middle;
  }
  .inputPortLabel {
    text-anchor: end;
  }
  .splitjoinBody {
    fill:#000;
  }</style>
  <g s:type="add" transform="translate(797.6666666666666,300.5)" s:width="25" s:height="25" id="cell_$add$build/mps/CPU.v:126$1">
    <s:alias val="$add"/>
    <circle r="12.5" cx="12.5" cy="12.5" class="cell_$add$build/mps/CPU.v:126$1"/>
    <line x1="7.5" x2="17.5" y1="12.5" y2="12.5" class="cell_$add$build/mps/CPU.v:126$1"/>
    <line x1="12.5" x2="12.5" y1="7.5" y2="17.5" class="cell_$add$build/mps/CPU.v:126$1"/>
    <g s:x="3" s:y="5" s:pid="A"/>
    <g s:x="3" s:y="20" s:pid="B"/>
    <g s:x="25" s:y="12.5" s:pid="Y"/>
  </g>
  <g s:type="add" transform="translate(886.6666666666666,278)" s:width="25" s:height="25" id="cell_$add$build/mps/CPU.v:127$2">
    <s:alias val="$add"/>
    <circle r="12.5" cx="12.5" cy="12.5" class="cell_$add$build/mps/CPU.v:127$2"/>
    <line x1="7.5" x2="17.5" y1="12.5" y2="12.5" class="cell_$add$build/mps/CPU.v:127$2"/>
    <line x1="12.5" x2="12.5" y1="7.5" y2="17.5" class="cell_$add$build/mps/CPU.v:127$2"/>
    <g s:x="3" s:y="5" s:pid="A"/>
    <g s:x="3" s:y="20" s:pid="B"/>
    <g s:x="25" s:y="12.5" s:pid="Y"/>
  </g>
  <g s:type="and" transform="translate(885,511)" s:width="30" s:height="25" id="cell_$and$build/mps/CPU.v:128$3">
    <s:alias val="$and"/>
    <s:alias val="$logic_and"/>
    <s:alias val="$_AND_"/>
    <path d="M0,0 L0,25 L15,25 A15 12.5 0 0 0 15,0 Z" class="cell_$and$build/mps/CPU.v:128$3"/>
    <g s:x="0" s:y="5" s:pid="A"/>
    <g s:x="0" s:y="20" s:pid="B"/>
    <g s:x="30" s:y="12.5" s:pid="Y"/>
  </g>
  <g s:type="mux" transform="translate(449,590)" s:width="20" s:height="40" id="cell_$ternary$build/mps/CPU.v:129$4">
    <s:alias val="$pmux"/>
    <s:alias val="$mux"/>
    <s:alias val="$_MUX_"/>
    <path d="M0,0 L20,10 L20,30 L0,40 Z" class="cell_$ternary$build/mps/CPU.v:129$4"/>
    <g s:x="0" s:y="10" s:pid="A"/>
    <g s:x="0" s:y="30" s:pid="B"/>
    <g s:x="10" s:y="35" s:pid="S"/>
    <g s:x="20" s:y="20" s:pid="Y"/>
  </g>
  <g s:type="mux" transform="translate(681.6666666666666,453.5)" s:width="20" s:height="40" id="cell_$ternary$build/mps/CPU.v:130$5">
    <s:alias val="$pmux"/>
    <s:alias val="$mux"/>
    <s:alias val="$_MUX_"/>
    <path d="M0,0 L20,10 L20,30 L0,40 Z" class="cell_$ternary$build/mps/CPU.v:130$5"/>
    <g s:x="0" s:y="10" s:pid="A"/>
    <g s:x="0" s:y="30" s:pid="B"/>
    <g s:x="10" s:y="35" s:pid="S"/>
    <g s:x="20" s:y="20" s:pid="Y"/>
  </g>
  <g s:type="mux" transform="translate(1279,373.5)" s:width="20" s:height="40" id="cell_$ternary$build/mps/CPU.v:131$6">
    <s:alias val="$pmux"/>
    <s:alias val="$mux"/>
    <s:alias val="$_MUX_"/>
    <path d="M0,0 L20,10 L20,30 L0,40 Z" class="cell_$ternary$build/mps/CPU.v:131$6"/>
    <g s:x="0" s:y="10" s:pid="A"/>
    <g s:x="0" s:y="30" s:pid="B"/>
    <g s:x="10" s:y="35" s:pid="S"/>
    <g s:x="20" s:y="20" s:pid="Y"/>
  </g>
  <g s:type="mux" transform="translate(1013.6666666666666,313)" s:width="20" s:height="40" id="cell_$ternary$build/mps/CPU.v:132$7">
    <s:alias val="$pmux"/>
    <s:alias val="$mux"/>
    <s:alias val="$_MUX_"/>
    <path d="M0,0 L20,10 L20,30 L0,40 Z" class="cell_$ternary$build/mps/CPU.v:132$7"/>
    <g s:x="0" s:y="10" s:pid="A"/>
    <g s:x="0" s:y="30" s:pid="B"/>
    <g s:x="10" s:y="35" s:pid="S"/>
    <g s:x="20" s:y="20" s:pid="Y"/>
  </g>
  <g s:type="mux" transform="translate(950,303)" s:width="20" s:height="40" id="cell_$ternary$build/mps/CPU.v:133$8">
    <s:alias val="$pmux"/>
    <s:alias val="$mux"/>
    <s:alias val="$_MUX_"/>
    <path d="M0,0 L20,10 L20,30 L0,40 Z" class="cell_$ternary$build/mps/CPU.v:133$8"/>
    <g s:x="0" s:y="10" s:pid="A"/>
    <g s:x="0" s:y="30" s:pid="B"/>
    <g s:x="10" s:y="35" s:pid="S"/>
    <g s:x="20" s:y="20" s:pid="Y"/>
  </g>
  <g s:type="generic" transform="translate(794,443)" s:width="30" s:height="40" id="cell_alu">
    <text x="15" y="-4" class="nodelabel cell_alu" s:attribute="ref">ALU</text>
    <rect width="30" height="60" s:generic="body" class="cell_alu"/>
    <g transform="translate(0,10)" s:x="0" s:y="10" s:pid="in0" id="port_alu~a">
      <text x="-3" y="-4" class="inputPortLabel cell_alu">a</text>
    </g>
    <g transform="translate(0,30)" s:x="0" s:y="10" s:pid="in0" id="port_alu~b">
      <text x="-3" y="-4" class="inputPortLabel cell_alu">b</text>
    </g>
    <g transform="translate(0,50)" s:x="0" s:y="10" s:pid="in0" id="port_alu~mode">
      <text x="-3" y="-4" class="inputPortLabel cell_alu">mode</text>
    </g>
    <g transform="translate(30,10)" s:x="30" s:y="10" s:pid="out0" id="port_alu~z">
      <text x="5" y="-4" style="fill:#000; stroke:none" class="cell_alu">z</text>
    </g>
    <g transform="translate(30,30)" s:x="30" s:y="10" s:pid="out0" id="port_alu~zero">
      <text x="5" y="-4" style="fill:#000; stroke:none" class="cell_alu">zero</text>
    </g>
  </g>
  <g s:type="generic" transform="translate(678,375.5)" s:width="30" s:height="40" id="cell_c_aluctrl">
    <text x="15" y="-4" class="nodelabel cell_c_aluctrl" s:attribute="ref">ALUControl</text>
    <rect width="30" height="40" s:generic="body" class="cell_c_aluctrl"/>
    <g transform="translate(0,10)" s:x="0" s:y="10" s:pid="in0" id="port_c_aluctrl~func">
      <text x="-3" y="-4" class="inputPortLabel cell_c_aluctrl">func</text>
    </g>
    <g transform="translate(0,30)" s:x="0" s:y="10" s:pid="in0" id="port_c_aluctrl~op">
      <text x="-3" y="-4" class="inputPortLabel cell_c_aluctrl">op</text>
    </g>
    <g transform="translate(30,10)" s:x="30" s:y="10" s:pid="out0" id="port_c_aluctrl~mode">
      <text x="5" y="-4" style="fill:#000; stroke:none" class="cell_c_aluctrl">mode</text>
    </g>
  </g>
  <g s:type="generic" transform="translate(257,509.5)" s:width="30" s:height="40" id="cell_c_ctrl">
    <text x="15" y="-4" class="nodelabel cell_c_ctrl" s:attribute="ref">Control</text>
    <rect width="30" height="160" s:generic="body" class="cell_c_ctrl"/>
    <g transform="translate(0,10)" s:x="0" s:y="10" s:pid="in0" id="port_c_ctrl~op">
      <text x="-3" y="-4" class="inputPortLabel cell_c_ctrl">op</text>
    </g>
    <g transform="translate(30,10)" s:x="30" s:y="10" s:pid="out0" id="port_c_ctrl~alu_op">
      <text x="5" y="-4" style="fill:#000; stroke:none" class="cell_c_ctrl">alu_op</text>
    </g>
    <g transform="translate(30,30)" s:x="30" s:y="10" s:pid="out0" id="port_c_ctrl~alu_sel">
      <text x="5" y="-4" style="fill:#000; stroke:none" class="cell_c_ctrl">alu_sel</text>
    </g>
    <g transform="translate(30,50)" s:x="30" s:y="10" s:pid="out0" id="port_c_ctrl~branch">
      <text x="5" y="-4" style="fill:#000; stroke:none" class="cell_c_ctrl">branch</text>
    </g>
    <g transform="translate(30,70)" s:x="30" s:y="10" s:pid="out0" id="port_c_ctrl~jump">
      <text x="5" y="-4" style="fill:#000; stroke:none" class="cell_c_ctrl">jump</text>
    </g>
    <g transform="translate(30,90)" s:x="30" s:y="10" s:pid="out0" id="port_c_ctrl~mem_to_reg">
      <text x="5" y="-4" style="fill:#000; stroke:none" class="cell_c_ctrl">mem_to_reg</text>
    </g>
    <g transform="translate(30,110)" s:x="30" s:y="10" s:pid="out0" id="port_c_ctrl~mem_write">
      <text x="5" y="-4" style="fill:#000; stroke:none" class="cell_c_ctrl">mem_write</text>
    </g>
    <g transform="translate(30,130)" s:x="30" s:y="10" s:pid="out0" id="port_c_ctrl~reg_d_sel">
      <text x="5" y="-4" style="fill:#000; stroke:none" class="cell_c_ctrl">reg_d_sel</text>
    </g>
    <g transform="translate(30,150)" s:x="30" s:y="10" s:pid="out0" id="port_c_ctrl~reg_write">
      <text x="5" y="-4" style="fill:#000; stroke:none" class="cell_c_ctrl">reg_write</text>
    </g>
  </g>
  <g s:type="generic" transform="translate(108,592)" s:width="30" s:height="40" id="cell_c_id">
    <text x="15" y="-4" class="nodelabel cell_c_id" s:attribute="ref">InstructionDecoder</text>
    <rect width="30" height="140" s:generic="body" class="cell_c_id"/>
    <g transform="translate(0,10)" s:x="0" s:y="10" s:pid="in0" id="port_c_id~instr">
      <text x="-3" y="-4" class="inputPortLabel cell_c_id">instr</text>
    </g>
    <g transform="translate(30,10)" s:x="30" s:y="10" s:pid="out0" id="port_c_id~func">
      <text x="5" y="-4" style="fill:#000; stroke:none" class="cell_c_id">func</text>
    </g>
    <g transform="translate(30,30)" s:x="30" s:y="10" s:pid="out0" id="port_c_id~imm">
      <text x="5" y="-4" style="fill:#000; stroke:none" class="cell_c_id">imm</text>
    </g>
    <g transform="translate(30,50)" s:x="30" s:y="10" s:pid="out0" id="port_c_id~jump_addr">
      <text x="5" y="-4" style="fill:#000; stroke:none" class="cell_c_id">jump_addr</text>
    </g>
    <g transform="translate(30,70)" s:x="30" s:y="10" s:pid="out0" id="port_c_id~op">
      <text x="5" y="-4" style="fill:#000; stroke:none" class="cell_c_id">op</text>
    </g>
    <g transform="translate(30,90)" s:x="30" s:y="10" s:pid="out0" id="port_c_id~reg_d">
      <text x="5" y="-4" style="fill:#000; stroke:none" class="cell_c_id">reg_d</text>
    </g>
    <g transform="translate(30,110)" s:x="30" s:y="10" s:pid="out0" id="port_c_id~reg_s">
      <text x="5" y="-4" style="fill:#000; stroke:none" class="cell_c_id">reg_s</text>
    </g>
    <g transform="translate(30,130)" s:x="30" s:y="10" s:pid="out0" id="port_c_id~reg_t">
      <text x="5" y="-4" style="fill:#000; stroke:none" class="cell_c_id">reg_t</text>
    </g>
  </g>
  <g s:type="generic" transform="translate(1119,194)" s:width="30" s:height="40" id="cell_c_pc">
    <text x="15" y="-4" class="nodelabel cell_c_pc" s:attribute="ref">ProgramCounter</text>
    <rect width="30" height="60" s:generic="body" class="cell_c_pc"/>
    <g transform="translate(0,10)" s:x="0" s:y="10" s:pid="in0" id="port_c_pc~clock">
      <text x="-3" y="-4" class="inputPortLabel cell_c_pc">clock</text>
    </g>
    <g transform="translate(0,30)" s:x="0" s:y="10" s:pid="in0" id="port_c_pc~next_pc">
      <text x="-3" y="-4" class="inputPortLabel cell_c_pc">next_pc</text>
    </g>
    <g transform="translate(0,50)" s:x="0" s:y="10" s:pid="in0" id="port_c_pc~nreset">
      <text x="-3" y="-4" class="inputPortLabel cell_c_pc">nreset</text>
    </g>
    <g transform="translate(30,10)" s:x="30" s:y="10" s:pid="out0" id="port_c_pc~pc">
      <text x="5" y="-4" style="fill:#000; stroke:none" class="cell_c_pc">pc</text>
    </g>
  </g>
  <g s:type="generic" transform="translate(564,652)" s:width="30" s:height="40" id="cell_c_regfile">
    <text x="15" y="-4" class="nodelabel cell_c_regfile" s:attribute="ref">RegisterFile</text>
    <rect width="30" height="100" s:generic="body" class="cell_c_regfile"/>
    <g transform="translate(0,10)" s:x="0" s:y="10" s:pid="in0" id="port_c_regfile~d">
      <text x="-3" y="-4" class="inputPortLabel cell_c_regfile">d</text>
    </g>
    <g transform="translate(0,30)" s:x="0" s:y="10" s:pid="in0" id="port_c_regfile~reg_d">
      <text x="-3" y="-4" class="inputPortLabel cell_c_regfile">reg_d</text>
    </g>
    <g transform="translate(0,50)" s:x="0" s:y="10" s:pid="in0" id="port_c_regfile~reg_s">
      <text x="-3" y="-4" class="inputPortLabel cell_c_regfile">reg_s</text>
    </g>
    <g transform="translate(0,70)" s:x="0" s:y="10" s:pid="in0" id="port_c_regfile~reg_t">
      <text x="-3" y="-4" class="inputPortLabel cell_c_regfile">reg_t</text>
    </g>
    <g transform="translate(0,90)" s:x="0" s:y="10" s:pid="in0" id="port_c_regfile~reg_write">
      <text x="-3" y="-4" class="inputPortLabel cell_c_regfile">reg_write</text>
    </g>
    <g transform="translate(30,10)" s:x="30" s:y="10" s:pid="out0" id="port_c_regfile~s">
      <text x="5" y="-4" style="fill:#000; stroke:none" class="cell_c_regfile">s</text>
    </g>
    <g transform="translate(30,30)" s:x="30" s:y="10" s:pid="out0" id="port_c_regfile~t">
      <text x="5" y="-4" style="fill:#000; stroke:none" class="cell_c_regfile">t</text>
    </g>
  </g>
  <g s:type="generic" transform="translate(544,34.5)" s:width="30" s:height="40" id="cell_c_se">
    <text x="15" y="-4" class="nodelabel cell_c_se" s:attribute="ref">SignExtender</text>
    <rect width="30" height="20" s:generic="body" class="cell_c_se"/>
    <g transform="translate(0,10)" s:x="0" s:y="10" s:pid="in0" id="port_c_se~imm">
      <text x="-3" y="-4" class="inputPortLabel cell_c_se">imm</text>
    </g>
    <g transform="translate(30,10)" s:x="30" s:y="10" s:pid="out0" id="port_c_se~imm_ext">
      <text x="5" y="-4" style="fill:#000; stroke:none" class="cell_c_se">imm_ext</text>
    </g>
  </g>
  <g s:type="inputExt" transform="translate(12,592.5)" s:width="30" s:height="20" id="cell_instr">
    <text x="15" y="-4" class="nodelabel cell_instr" s:attribute="ref">instr</text>
    <s:alias val="$_inputExt_"/>
    <path d="M0,0 L0,20 L15,20 L30,10 L15,0 Z" class="cell_instr"/>
    <g s:x="28" s:y="10" s:pid="Y"/>
  </g>
  <g s:type="outputExt" transform="translate(1269,150.5)" s:width="30" s:height="20" id="cell_pc">
    <text x="15" y="-4" class="nodelabel cell_pc" s:attribute="ref">pc</text>
    <s:alias val="$_outputExt_"/>
    <path d="M30,0 L30,20 L15,20 L0,10 L15,0 Z" class="cell_pc"/>
    <g s:x="0" s:y="10" s:pid="A"/>
  </g>
  <g s:type="inputExt" transform="translate(1198,393.5)" s:width="30" s:height="20" id="cell_rval">
    <text x="15" y="-4" class="nodelabel cell_rval" s:attribute="ref">rval</text>
    <s:alias val="$_inputExt_"/>
    <path d="M0,0 L0,20 L15,20 L30,10 L15,0 Z" class="cell_rval"/>
    <g s:x="28" s:y="10" s:pid="Y"/>
  </g>
  <g s:type="outputExt" transform="translate(1269,672.5)" s:width="30" s:height="20" id="cell_wval">
    <text x="15" y="-4" class="nodelabel cell_wval" s:attribute="ref">wval</text>
    <s:alias val="$_outputExt_"/>
    <path d="M30,0 L30,20 L15,20 L0,10 L15,0 Z" class="cell_wval"/>
    <g s:x="0" s:y="10" s:pid="A"/>
  </g>
  <g s:type="outputExt" transform="translate(1269,443.5)" s:width="30" s:height="20" id="cell_addr">
    <text x="15" y="-4" class="nodelabel cell_addr" s:attribute="ref">addr</text>
    <s:alias val="$_outputExt_"/>
    <path d="M30,0 L30,20 L15,20 L0,10 L15,0 Z" class="cell_addr"/>
    <g s:x="0" s:y="10" s:pid="A"/>
  </g>
  <g s:type="outputExt" transform="translate(1269,558)" s:width="30" s:height="20" id="cell_write">
    <text x="15" y="-4" class="nodelabel cell_write" s:attribute="ref">write</text>
    <s:alias val="$_outputExt_"/>
    <path d="M30,0 L30,20 L15,20 L0,10 L15,0 Z" class="cell_write"/>
    <g s:x="0" s:y="10" s:pid="A"/>
  </g>
  <g s:type="inputExt" transform="translate(1005,169.5)" s:width="30" s:height="20" id="cell_clock">
    <text x="15" y="-4" class="nodelabel cell_clock" s:attribute="ref">clock</text>
    <s:alias val="$_inputExt_"/>
    <path d="M0,0 L0,20 L15,20 L30,10 L15,0 Z" class="cell_clock"/>
    <g s:x="28" s:y="10" s:pid="Y"/>
  </g>
  <g s:type="inputExt" transform="translate(1005,234.5)" s:width="30" s:height="20" id="cell_nreset">
    <text x="15" y="-4" class="nodelabel cell_nreset" s:attribute="ref">nreset</text>
    <s:alias val="$_inputExt_"/>
    <path d="M0,0 L0,20 L15,20 L30,10 L15,0 Z" class="cell_nreset"/>
    <g s:x="28" s:y="10" s:pid="Y"/>
  </g>
  <g s:type="constant" transform="translate(678,310.5)" s:width="30" s:height="20" id="cell_100">
    <text x="15" y="-4" class="nodelabel cell_100" s:attribute="ref">100</text>
    <s:alias val="$_constant_"/>
    <rect width="30" height="20" class="cell_100"/>
    <g s:x="30" s:y="10" s:pid="Y"/>
  </g>
  <g s:type="constant" transform="translate(678,120.5)" s:width="30" s:height="20" id="cell_00">
    <text x="15" y="-4" class="nodelabel cell_00" s:attribute="ref">00</text>
    <s:alias val="$_constant_"/>
    <rect width="30" height="20" class="cell_00"/>
    <g s:x="30" s:y="10" s:pid="Y"/>
  </g>
  <g s:type="join" transform="translate(803,80.5)" s:width="4" s:height="40" id="cell_$join$,511,512,197,198,199,200,201,202,203,204,205,206,207,208,209,210,211,212,213,214,215,216,217,218,219,220,221,222,223,224,225,226,">
    <rect width="5" height="40" class="splitjoinBody" s:generic="body"/>
    <s:alias val="$_join_"/>
    <g s:x="5" s:y="20" s:pid="out"/>
    <g transform="translate(0,10)" s:x="0" s:y="10" s:pid="in0">
      <text x="-3" y="-4" class="inputPortLabel">0:1</text>
    </g>
    <g transform="translate(0,30)" s:x="0" s:y="10" s:pid="in0">
      <text x="-3" y="-4" class="inputPortLabel">2:31</text>
    </g>
  </g>
  <g s:type="join" transform="translate(1288,40.5)" s:width="4" s:height="40" id="cell_$join$,511,512,378,379,380,381,382,383,384,385,386,387,388,389,390,391,392,393,394,395,396,397,398,399,400,401,62,63,64,65,511,512,">
    <rect width="5" height="80" class="splitjoinBody" s:generic="body"/>
    <s:alias val="$_join_"/>
    <g s:x="5" s:y="20" s:pid="out"/>
    <g transform="translate(0,10)" s:x="0" s:y="10" s:pid="in0">
      <text x="-3" y="-4" class="inputPortLabel">0:1</text>
    </g>
    <g transform="translate(0,30)" s:x="0" s:y="10" s:pid="in0">
      <text x="-3" y="-4" class="inputPortLabel">2:25</text>
    </g>
    <g transform="translate(0,50)" s:x="0" s:y="10" s:pid="in0">
      <text x="-3" y="-4" class="inputPortLabel">26:29</text>
    </g>
    <g transform="translate(0,70)" s:x="0" s:y="10" s:pid="in0">
      <text x="-3" y="-4" class="inputPortLabel">30:31</text>
    </g>
  </g>
  <g s:type="split" transform="translate(703,12)" s:width="5" s:height="40" id="cell_$split$,197,198,199,200,201,202,203,204,205,206,207,208,209,210,211,212,213,214,215,216,217,218,219,220,221,222,223,224,225,226,278,279,">
    <rect width="5" height="20" class="splitjoinBody" s:generic="body"/>
    <s:alias val="$_split_"/>
    <g s:x="0" s:y="20" s:pid="in"/>
    <g transform="translate(4,10)" s:x="4" s:y="10" s:pid="out0">
      <text x="5" y="-4">0:29</text>
    </g>
  </g>
  <g s:type="split" transform="translate(1198,34.5)" s:width="5" s:height="40" id="cell_$split$,378,379,380,381,382,383,384,385,386,387,388,389,390,391,392,393,394,395,396,397,398,399,400,401,501,502,">
    <rect width="5" height="20" class="splitjoinBody" s:generic="body"/>
    <s:alias val="$_split_"/>
    <g s:x="0" s:y="20" s:pid="in"/>
    <g transform="translate(4,10)" s:x="4" s:y="10" s:pid="out0">
      <text x="5" y="-4">0:23</text>
    </g>
  </g>
  <g s:type="split" transform="translate(1198,171.5)" s:width="5" s:height="40" id="cell_$split$,34,35,36,37,38,39,40,41,42,43,44,45,46,47,48,49,50,51,52,53,54,55,56,57,58,59,60,61,62,63,64,65,">
    <rect width="5" height="20" class="splitjoinBody" s:generic="body"/>
    <s:alias val="$_split_"/>
    <g s:x="0" s:y="20" s:pid="in"/>
    <g transform="translate(4,10)" s:x="4" s:y="10" s:pid="out0">
      <text x="5" y="-4">28:31</text>
    </g>
  </g>
  <line x1="1150" x2="1173" y1="204.5" y2="204.5" class="net_34,35,36,37,38,39,40,41,42,43,44,45,46,47,48,49,50,51,52,53,54,55,56,57,58,59,60,61,62,63,64,65"/>
  <line x1="1173" x2="1173" y1="204.5" y2="267" class="net_34,35,36,37,38,39,40,41,42,43,44,45,46,47,48,49,50,51,52,53,54,55,56,57,58,59,60,61,62,63,64,65"/>
  <line x1="1173" x2="754" y1="267" y2="267" class="net_34,35,36,37,38,39,40,41,42,43,44,45,46,47,48,49,50,51,52,53,54,55,56,57,58,59,60,61,62,63,64,65"/>
  <line x1="754" x2="754" y1="267" y2="305.5" class="net_34,35,36,37,38,39,40,41,42,43,44,45,46,47,48,49,50,51,52,53,54,55,56,57,58,59,60,61,62,63,64,65"/>
  <line x1="754" x2="800.6666666666666" y1="305.5" y2="305.5" class="net_34,35,36,37,38,39,40,41,42,43,44,45,46,47,48,49,50,51,52,53,54,55,56,57,58,59,60,61,62,63,64,65"/>
  <line x1="1150" x2="1173" y1="204.5" y2="204.5" class="net_34,35,36,37,38,39,40,41,42,43,44,45,46,47,48,49,50,51,52,53,54,55,56,57,58,59,60,61,62,63,64,65"/>
  <line x1="1173" x2="1173" y1="204.5" y2="160.5" class="net_34,35,36,37,38,39,40,41,42,43,44,45,46,47,48,49,50,51,52,53,54,55,56,57,58,59,60,61,62,63,64,65"/>
  <circle cx="1173" cy="204.5" r="2" style="fill:#000" class="net_34,35,36,37,38,39,40,41,42,43,44,45,46,47,48,49,50,51,52,53,54,55,56,57,58,59,60,61,62,63,64,65"/>
  <line x1="1173" x2="1269" y1="160.5" y2="160.5" class="net_34,35,36,37,38,39,40,41,42,43,44,45,46,47,48,49,50,51,52,53,54,55,56,57,58,59,60,61,62,63,64,65"/>
  <line x1="1150" x2="1198.5" y1="204.5" y2="204.5" class="net_34,35,36,37,38,39,40,41,42,43,44,45,46,47,48,49,50,51,52,53,54,55,56,57,58,59,60,61,62,63,64,65"/>
  <line x1="1198.5" x2="1198.5" y1="204.5" y2="192.5" class="net_34,35,36,37,38,39,40,41,42,43,44,45,46,47,48,49,50,51,52,53,54,55,56,57,58,59,60,61,62,63,64,65"/>
  <line x1="708" x2="800.6666666666666" y1="320.5" y2="320.5" class="net_508,509,510"/>
  <line x1="822.6666666666666" x2="860" y1="313" y2="313" class="net_165,166,167,168,169,170,171,172,173,174,175,176,177,178,179,180,181,182,183,184,185,186,187,188,189,190,191,192,193,194,195,196"/>
  <line x1="860" x2="860" y1="313" y2="283" class="net_165,166,167,168,169,170,171,172,173,174,175,176,177,178,179,180,181,182,183,184,185,186,187,188,189,190,191,192,193,194,195,196"/>
  <circle cx="860" cy="313" r="2" style="fill:#000" class="net_165,166,167,168,169,170,171,172,173,174,175,176,177,178,179,180,181,182,183,184,185,186,187,188,189,190,191,192,193,194,195,196"/>
  <line x1="860" x2="889.6666666666666" y1="283" y2="283" class="net_165,166,167,168,169,170,171,172,173,174,175,176,177,178,179,180,181,182,183,184,185,186,187,188,189,190,191,192,193,194,195,196"/>
  <line x1="822.6666666666666" x2="950" y1="313" y2="313" class="net_165,166,167,168,169,170,171,172,173,174,175,176,177,178,179,180,181,182,183,184,185,186,187,188,189,190,191,192,193,194,195,196"/>
  <line x1="809" x2="870" y1="101" y2="101" class="net_511,512,197,198,199,200,201,202,203,204,205,206,207,208,209,210,211,212,213,214,215,216,217,218,219,220,221,222,223,224,225,226"/>
  <line x1="870" x2="870" y1="101" y2="298" class="net_511,512,197,198,199,200,201,202,203,204,205,206,207,208,209,210,211,212,213,214,215,216,217,218,219,220,221,222,223,224,225,226"/>
  <line x1="870" x2="889.6666666666666" y1="298" y2="298" class="net_511,512,197,198,199,200,201,202,203,204,205,206,207,208,209,210,211,212,213,214,215,216,217,218,219,220,221,222,223,224,225,226"/>
  <line x1="288" x2="379" y1="560" y2="560" class="net_259"/>
  <line x1="379" x2="379" y1="560" y2="516" class="net_259"/>
  <line x1="379" x2="885" y1="516" y2="516" class="net_259"/>
  <line x1="825" x2="860" y1="473.5" y2="473.5" class="net_260"/>
  <line x1="860" x2="860" y1="473.5" y2="531" class="net_260"/>
  <line x1="860" x2="885" y1="531" y2="531" class="net_260"/>
  <line x1="139" x2="429" y1="722.5" y2="722.5" class="net_262,263,264,265,266"/>
  <line x1="429" x2="429" y1="722.5" y2="600" class="net_262,263,264,265,266"/>
  <circle cx="429" cy="722.5" r="2" style="fill:#000" class="net_262,263,264,265,266"/>
  <line x1="429" x2="449" y1="600" y2="600" class="net_262,263,264,265,266"/>
  <line x1="139" x2="564" y1="722.5" y2="722.5" class="net_262,263,264,265,266"/>
  <line x1="139" x2="439" y1="682.5" y2="682.5" class="net_267,268,269,270,271"/>
  <line x1="439" x2="439" y1="682.5" y2="620" class="net_267,268,269,270,271"/>
  <line x1="439" x2="449" y1="620" y2="620" class="net_267,268,269,270,271"/>
  <line x1="288" x2="459" y1="640" y2="640" class="net_272"/>
  <line x1="459" x2="459" y1="640" y2="625" class="net_272"/>
  <line x1="595" x2="638" y1="682.5" y2="682.5" class="net_98,99,100,101,102,103,104,105,106,107,108,109,110,111,112,113,114,115,116,117,118,119,120,121,122,123,124,125,126,127,128,129"/>
  <line x1="638" x2="638" y1="682.5" y2="463.5" class="net_98,99,100,101,102,103,104,105,106,107,108,109,110,111,112,113,114,115,116,117,118,119,120,121,122,123,124,125,126,127,128,129"/>
  <circle cx="638" cy="682.5" r="2" style="fill:#000" class="net_98,99,100,101,102,103,104,105,106,107,108,109,110,111,112,113,114,115,116,117,118,119,120,121,122,123,124,125,126,127,128,129"/>
  <line x1="638" x2="681.6666666666666" y1="463.5" y2="463.5" class="net_98,99,100,101,102,103,104,105,106,107,108,109,110,111,112,113,114,115,116,117,118,119,120,121,122,123,124,125,126,127,128,129"/>
  <line x1="595" x2="1269" y1="682.5" y2="682.5" class="net_98,99,100,101,102,103,104,105,106,107,108,109,110,111,112,113,114,115,116,117,118,119,120,121,122,123,124,125,126,127,128,129"/>
  <line x1="575" x2="628" y1="45" y2="45" class="net_197,198,199,200,201,202,203,204,205,206,207,208,209,210,211,212,213,214,215,216,217,218,219,220,221,222,223,224,225,226,278,279"/>
  <line x1="628" x2="628" y1="45" y2="483.5" class="net_197,198,199,200,201,202,203,204,205,206,207,208,209,210,211,212,213,214,215,216,217,218,219,220,221,222,223,224,225,226,278,279"/>
  <circle cx="628" cy="45" r="2" style="fill:#000" class="net_197,198,199,200,201,202,203,204,205,206,207,208,209,210,211,212,213,214,215,216,217,218,219,220,221,222,223,224,225,226,278,279"/>
  <line x1="628" x2="681.6666666666666" y1="483.5" y2="483.5" class="net_197,198,199,200,201,202,203,204,205,206,207,208,209,210,211,212,213,214,215,216,217,218,219,220,221,222,223,224,225,226,278,279"/>
  <line x1="575" x2="703.5" y1="45" y2="45" class="net_197,198,199,200,201,202,203,204,205,206,207,208,209,210,211,212,213,214,215,216,217,218,219,220,221,222,223,224,225,226,278,279"/>
  <line x1="703.5" x2="703.5" y1="45" y2="33" class="net_197,198,199,200,201,202,203,204,205,206,207,208,209,210,211,212,213,214,215,216,217,218,219,220,221,222,223,224,225,226,278,279"/>
  <line x1="288" x2="369" y1="540" y2="540" class="net_280"/>
  <line x1="369" x2="369" y1="540" y2="505" class="net_280"/>
  <line x1="369" x2="691.6666666666666" y1="505" y2="505" class="net_280"/>
  <line x1="691.6666666666666" x2="691.6666666666666" y1="505" y2="488.5" class="net_280"/>
  <line x1="825" x2="980" y1="453.5" y2="453.5" class="net_130,131,132,133,134,135,136,137,138,139,140,141,142,143,144,145,146,147,148,149,150,151,152,153,154,155,156,157,158,159,160,161"/>
  <line x1="980" x2="980" y1="453.5" y2="302" class="net_130,131,132,133,134,135,136,137,138,139,140,141,142,143,144,145,146,147,148,149,150,151,152,153,154,155,156,157,158,159,160,161"/>
  <line x1="980" x2="1244" y1="302" y2="302" class="net_130,131,132,133,134,135,136,137,138,139,140,141,142,143,144,145,146,147,148,149,150,151,152,153,154,155,156,157,158,159,160,161"/>
  <line x1="1244" x2="1244" y1="302" y2="383.5" class="net_130,131,132,133,134,135,136,137,138,139,140,141,142,143,144,145,146,147,148,149,150,151,152,153,154,155,156,157,158,159,160,161"/>
  <circle cx="980" cy="453.5" r="2" style="fill:#000" class="net_130,131,132,133,134,135,136,137,138,139,140,141,142,143,144,145,146,147,148,149,150,151,152,153,154,155,156,157,158,159,160,161"/>
  <line x1="1244" x2="1279" y1="383.5" y2="383.5" class="net_130,131,132,133,134,135,136,137,138,139,140,141,142,143,144,145,146,147,148,149,150,151,152,153,154,155,156,157,158,159,160,161"/>
  <line x1="825" x2="1269" y1="453.5" y2="453.5" class="net_130,131,132,133,134,135,136,137,138,139,140,141,142,143,144,145,146,147,148,149,150,151,152,153,154,155,156,157,158,159,160,161"/>
  <line x1="1226" x2="1279" y1="403.5" y2="403.5" class="net_66,67,68,69,70,71,72,73,74,75,76,77,78,79,80,81,82,83,84,85,86,87,88,89,90,91,92,93,94,95,96,97"/>
  <line x1="288" x2="399" y1="600" y2="600" class="net_313"/>
  <line x1="399" x2="399" y1="600" y2="557" class="net_313"/>
  <line x1="399" x2="1244" y1="557" y2="557" class="net_313"/>
  <line x1="1244" x2="1244" y1="557" y2="423.5" class="net_313"/>
  <line x1="1244" x2="1289" y1="423.5" y2="423.5" class="net_313"/>
  <line x1="1289" x2="1289" y1="423.5" y2="408.5" class="net_313"/>
  <line x1="970" x2="1013.6666666666666" y1="323" y2="323" class="net_346,347,348,349,350,351,352,353,354,355,356,357,358,359,360,361,362,363,364,365,366,367,368,369,370,371,372,373,374,375,376,377"/>
  <line x1="1294" x2="1309" y1="61" y2="61" class="net_511,512,378,379,380,381,382,383,384,385,386,387,388,389,390,391,392,393,394,395,396,397,398,399,400,401,62,63,64,65,511,512"/>
  <line x1="1309" x2="1309" y1="61" y2="363.5" class="net_511,512,378,379,380,381,382,383,384,385,386,387,388,389,390,391,392,393,394,395,396,397,398,399,400,401,62,63,64,65,511,512"/>
  <line x1="1309" x2="990" y1="363.5" y2="363.5" class="net_511,512,378,379,380,381,382,383,384,385,386,387,388,389,390,391,392,393,394,395,396,397,398,399,400,401,62,63,64,65,511,512"/>
  <line x1="990" x2="990" y1="363.5" y2="343" class="net_511,512,378,379,380,381,382,383,384,385,386,387,388,389,390,391,392,393,394,395,396,397,398,399,400,401,62,63,64,65,511,512"/>
  <line x1="990" x2="1013.6666666666666" y1="343" y2="343" class="net_511,512,378,379,380,381,382,383,384,385,386,387,388,389,390,391,392,393,394,395,396,397,398,399,400,401,62,63,64,65,511,512"/>
  <line x1="288" x2="389" y1="580" y2="580" class="net_402"/>
  <line x1="389" x2="389" y1="580" y2="546" class="net_402"/>
  <line x1="389" x2="1023.6666666666666" y1="546" y2="546" class="net_402"/>
  <line x1="1023.6666666666666" x2="1023.6666666666666" y1="546" y2="348" class="net_402"/>
  <line x1="911.6666666666666" x2="925" y1="290.5" y2="290.5" class="net_227,228,229,230,231,232,233,234,235,236,237,238,239,240,241,242,243,244,245,246,247,248,249,250,251,252,253,254,255,256,257,258"/>
  <line x1="925" x2="925" y1="290.5" y2="333" class="net_227,228,229,230,231,232,233,234,235,236,237,238,239,240,241,242,243,244,245,246,247,248,249,250,251,252,253,254,255,256,257,258"/>
  <line x1="925" x2="950" y1="333" y2="333" class="net_227,228,229,230,231,232,233,234,235,236,237,238,239,240,241,242,243,244,245,246,247,248,249,250,251,252,253,254,255,256,257,258"/>
  <line x1="915" x2="960" y1="523.5" y2="523.5" class="net_261"/>
  <line x1="960" x2="960" y1="523.5" y2="338" class="net_261"/>
  <line x1="595" x2="744" y1="662.5" y2="662.5" class="net_435,436,437,438,439,440,441,442,443,444,445,446,447,448,449,450,451,452,453,454,455,456,457,458,459,460,461,462,463,464,465,466"/>
  <line x1="744" x2="744" y1="662.5" y2="453.5" class="net_435,436,437,438,439,440,441,442,443,444,445,446,447,448,449,450,451,452,453,454,455,456,457,458,459,460,461,462,463,464,465,466"/>
  <line x1="744" x2="794" y1="453.5" y2="453.5" class="net_435,436,437,438,439,440,441,442,443,444,445,446,447,448,449,450,451,452,453,454,455,456,457,458,459,460,461,462,463,464,465,466"/>
  <line x1="701.6666666666666" x2="794" y1="473.5" y2="473.5" class="net_281,282,283,284,285,286,287,288,289,290,291,292,293,294,295,296,297,298,299,300,301,302,303,304,305,306,307,308,309,310,311,312"/>
  <line x1="709" x2="754" y1="386" y2="386" class="net_467,468,469,470"/>
  <line x1="754" x2="754" y1="386" y2="493.5" class="net_467,468,469,470"/>
  <line x1="754" x2="794" y1="493.5" y2="493.5" class="net_467,468,469,470"/>
  <line x1="139" x2="204" y1="602.5" y2="602.5" class="net_471,472,473,474,475,476"/>
  <line x1="204" x2="204" y1="602.5" y2="13.5" class="net_471,472,473,474,475,476"/>
  <line x1="204" x2="638" y1="13.5" y2="13.5" class="net_471,472,473,474,475,476"/>
  <line x1="638" x2="638" y1="13.5" y2="386" class="net_471,472,473,474,475,476"/>
  <line x1="638" x2="678" y1="386" y2="386" class="net_471,472,473,474,475,476"/>
  <line x1="288" x2="359" y1="520" y2="520" class="net_477"/>
  <line x1="359" x2="359" y1="520" y2="406" class="net_477"/>
  <line x1="359" x2="678" y1="406" y2="406" class="net_477"/>
  <line x1="139" x2="234" y1="662.5" y2="662.5" class="net_478,479,480,481,482,483"/>
  <line x1="234" x2="234" y1="662.5" y2="520" class="net_478,479,480,481,482,483"/>
  <line x1="234" x2="257" y1="520" y2="520" class="net_478,479,480,481,482,483"/>
  <line x1="40" x2="108" y1="602.5" y2="602.5" class="net_2,3,4,5,6,7,8,9,10,11,12,13,14,15,16,17,18,19,20,21,22,23,24,25,26,27,28,29,30,31,32,33"/>
  <line x1="1033" x2="1051" y1="179.5" y2="179.5" class="net_163"/>
  <line x1="1051" x2="1051" y1="179.5" y2="204.5" class="net_163"/>
  <line x1="1051" x2="1119" y1="204.5" y2="204.5" class="net_163"/>
  <line x1="1033.6666666666665" x2="1051" y1="333" y2="333" class="net_403,404,405,406,407,408,409,410,411,412,413,414,415,416,417,418,419,420,421,422,423,424,425,426,427,428,429,430,431,432,433,434"/>
  <line x1="1051" x2="1051" y1="333" y2="224.5" class="net_403,404,405,406,407,408,409,410,411,412,413,414,415,416,417,418,419,420,421,422,423,424,425,426,427,428,429,430,431,432,433,434"/>
  <line x1="1051" x2="1119" y1="224.5" y2="224.5" class="net_403,404,405,406,407,408,409,410,411,412,413,414,415,416,417,418,419,420,421,422,423,424,425,426,427,428,429,430,431,432,433,434"/>
  <line x1="1033" x2="1119" y1="244.5" y2="244.5" class="net_164"/>
  <line x1="1299" x2="1309" y1="393.5" y2="393.5" class="net_314,315,316,317,318,319,320,321,322,323,324,325,326,327,328,329,330,331,332,333,334,335,336,337,338,339,340,341,342,343,344,345"/>
  <line x1="1309" x2="1309" y1="393.5" y2="632" class="net_314,315,316,317,318,319,320,321,322,323,324,325,326,327,328,329,330,331,332,333,334,335,336,337,338,339,340,341,342,343,344,345"/>
  <line x1="1309" x2="499" y1="632" y2="632" class="net_314,315,316,317,318,319,320,321,322,323,324,325,326,327,328,329,330,331,332,333,334,335,336,337,338,339,340,341,342,343,344,345"/>
  <line x1="499" x2="499" y1="632" y2="662.5" class="net_314,315,316,317,318,319,320,321,322,323,324,325,326,327,328,329,330,331,332,333,334,335,336,337,338,339,340,341,342,343,344,345"/>
  <line x1="499" x2="564" y1="662.5" y2="662.5" class="net_314,315,316,317,318,319,320,321,322,323,324,325,326,327,328,329,330,331,332,333,334,335,336,337,338,339,340,341,342,343,344,345"/>
  <line x1="469" x2="489" y1="610" y2="610" class="net_273,274,275,276,277"/>
  <line x1="489" x2="489" y1="610" y2="682.5" class="net_273,274,275,276,277"/>
  <line x1="489" x2="564" y1="682.5" y2="682.5" class="net_273,274,275,276,277"/>
  <line x1="139" x2="564" y1="702.5" y2="702.5" class="net_503,504,505,506,507"/>
  <line x1="288" x2="419" y1="660" y2="660" class="net_484"/>
  <line x1="419" x2="419" y1="660" y2="579" class="net_484"/>
  <line x1="419" x2="479" y1="579" y2="579" class="net_484"/>
  <line x1="479" x2="479" y1="579" y2="742.5" class="net_484"/>
  <line x1="479" x2="564" y1="742.5" y2="742.5" class="net_484"/>
  <line x1="139" x2="214" y1="622.5" y2="622.5" class="net_485,486,487,488,489,490,491,492,493,494,495,496,497,498,499,500"/>
  <line x1="214" x2="214" y1="622.5" y2="45" class="net_485,486,487,488,489,490,491,492,493,494,495,496,497,498,499,500"/>
  <line x1="214" x2="544" y1="45" y2="45" class="net_485,486,487,488,489,490,491,492,493,494,495,496,497,498,499,500"/>
  <line x1="288" x2="409" y1="620" y2="620" class="net_162"/>
  <line x1="409" x2="409" y1="620" y2="568" class="net_162"/>
  <line x1="409" x2="1269" y1="568" y2="568" class="net_162"/>
  <line x1="708" x2="744" y1="130.5" y2="130.5" class="net_511,512"/>
  <line x1="744" x2="744" y1="130.5" y2="91" class="net_511,512"/>
  <circle cx="744" cy="130.5" r="2" style="fill:#000" class="net_511,512"/>
  <line x1="744" x2="803" y1="91" y2="91" class="net_511,512"/>
  <line x1="708" x2="1244" y1="130.5" y2="130.5" class="net_511,512"/>
  <line x1="1244" x2="1244" y1="130.5" y2="51" class="net_511,512"/>
  <circle cx="1244" cy="130.5" r="2" style="fill:#000" class="net_511,512"/>
  <line x1="1244" x2="1288" y1="51" y2="51" class="net_511,512"/>
  <line x1="708" x2="1288.5" y1="130.5" y2="130.5" class="net_511,512"/>
  <line x1="1288.5" x2="1288.5" y1="130.5" y2="111.5" class="net_511,512"/>
  <line x1="708" x2="754" y1="22.5" y2="22.5" class="net_197,198,199,200,201,202,203,204,205,206,207,208,209,210,211,212,213,214,215,216,217,218,219,220,221,222,223,224,225,226"/>
  <line x1="754" x2="754" y1="22.5" y2="111" class="net_197,198,199,200,201,202,203,204,205,206,207,208,209,210,211,212,213,214,215,216,217,218,219,220,221,222,223,224,225,226"/>
  <line x1="754" x2="803" y1="111" y2="111" class="net_197,198,199,200,201,202,203,204,205,206,207,208,209,210,211,212,213,214,215,216,217,218,219,220,221,222,223,224,225,226"/>
  <line x1="1203" x2="1254" y1="45" y2="45" class="net_378,379,380,381,382,383,384,385,386,387,388,389,390,391,392,393,394,395,396,397,398,399,400,401"/>
  <line x1="1254" x2="1254" y1="45" y2="71" class="net_378,379,380,381,382,383,384,385,386,387,388,389,390,391,392,393,394,395,396,397,398,399,400,401"/>
  <line x1="1254" x2="1288" y1="71" y2="71" class="net_378,379,380,381,382,383,384,385,386,387,388,389,390,391,392,393,394,395,396,397,398,399,400,401"/>
  <line x1="1203" x2="1254" y1="182" y2="182" class="net_62,63,64,65"/>
  <line x1="1254" x2="1254" y1="182" y2="91" class="net_62,63,64,65"/>
  <line x1="1254" x2="1288" y1="91" y2="91" class="net_62,63,64,65"/>
  <line x1="139" x2="224" y1="642.5" y2="642.5" class="net_378,379,380,381,382,383,384,385,386,387,388,389,390,391,392,393,394,395,396,397,398,399,400,401,501,502"/>
  <line x1="224" x2="224" y1="642.5" y2="67.5" class="net_378,379,380,381,382,383,384,385,386,387,388,389,390,391,392,393,394,395,396,397,398,399,400,401,501,502"/>
  <line x1="224" x2="1198.5" y1="67.5" y2="67.5" class="net_378,379,380,381,382,383,384,385,386,387,388,389,390,391,392,393,394,395,396,397,398,399,400,401,501,502"/>
  <line x1="1198.5" x2="1198.5" y1="67.5" y2="55.5" class="net_378,379,380,381,382,383,384,385,386,387,388,389,390,391,392,393,394,395,396,397,398,399,400,401,501,502"/>
</svg>
