<svg xmlns="http://www.w3.org/2000/svg" xmlns:xlink="http://www.w3.org/1999/xlink" xmlns:s="https://github.com/nturley/netlistsvg" width="1229" height="679">
  <style>svg {
    stroke:#000;
    fill:none;
  }
  text {
    fill:#000;
    stroke:none;
    font-size:10px;
    font-weight: bold;
    font-family: "Courier New", monospace;
  }
  .nodelabel {
    text-anchor: middle;
  }
  .inputPortLabel {
    text-anchor: end;
  }
  .splitjoinBody {
    fill:#000;
  }</style>
  <g s:type="mux" transform="translate(1177,460)" s:width="20" s:height="40" id="cell_$ternary$rtl/mps/CPU.v:103$3">
    <s:alias val="$pmux"/>
    <s:alias val="$mux"/>
    <s:alias val="$_MUX_"/>
    <path d="M0,0 L20,10 L20,30 L0,40 Z" class="cell_$ternary$rtl/mps/CPU.v:103$3"/>
    <g s:x="0" s:y="10" s:pid="A"/>
    <g s:x="0" s:y="30" s:pid="B"/>
    <g s:x="10" s:y="35" s:pid="S"/>
    <g s:x="20" s:y="20" s:pid="Y"/>
  </g>
  <g s:type="mux" transform="translate(429,266)" s:width="20" s:height="40" id="cell_$ternary$rtl/mps/CPU.v:67$1">
    <s:alias val="$pmux"/>
    <s:alias val="$mux"/>
    <s:alias val="$_MUX_"/>
    <path d="M0,0 L20,10 L20,30 L0,40 Z" class="cell_$ternary$rtl/mps/CPU.v:67$1"/>
    <g s:x="0" s:y="10" s:pid="A"/>
    <g s:x="0" s:y="30" s:pid="B"/>
    <g s:x="10" s:y="35" s:pid="S"/>
    <g s:x="20" s:y="20" s:pid="Y"/>
  </g>
  <g s:type="mux" transform="translate(655.6666666666666,194)" s:width="20" s:height="40" id="cell_$ternary$rtl/mps/CPU.v:94$2">
    <s:alias val="$pmux"/>
    <s:alias val="$mux"/>
    <s:alias val="$_MUX_"/>
    <path d="M0,0 L20,10 L20,30 L0,40 Z" class="cell_$ternary$rtl/mps/CPU.v:94$2"/>
    <g s:x="0" s:y="10" s:pid="A"/>
    <g s:x="0" s:y="30" s:pid="B"/>
    <g s:x="10" s:y="35" s:pid="S"/>
    <g s:x="20" s:y="20" s:pid="Y"/>
  </g>
  <g s:type="generic" transform="translate(773,377)" s:width="30" s:height="40" id="cell_alu">
    <text x="15" y="-4" class="nodelabel cell_alu" s:attribute="ref">ALU</text>
    <rect width="30" height="60" s:generic="body" class="cell_alu"/>
    <g transform="translate(0,10)" s:x="0" s:y="10" s:pid="in0" id="port_alu~a">
      <text x="-3" y="-4" class="inputPortLabel cell_alu">a</text>
    </g>
    <g transform="translate(0,30)" s:x="0" s:y="10" s:pid="in0" id="port_alu~b">
      <text x="-3" y="-4" class="inputPortLabel cell_alu">b</text>
    </g>
    <g transform="translate(0,50)" s:x="0" s:y="10" s:pid="in0" id="port_alu~mode">
      <text x="-3" y="-4" class="inputPortLabel cell_alu">mode</text>
    </g>
    <g transform="translate(30,10)" s:x="30" s:y="10" s:pid="out0" id="port_alu~z">
      <text x="5" y="-4" style="fill:#000; stroke:none" class="cell_alu">z</text>
    </g>
    <g transform="translate(30,30)" s:x="30" s:y="10" s:pid="out0" id="port_alu~zero">
      <text x="5" y="-4" style="fill:#000; stroke:none" class="cell_alu">zero</text>
    </g>
  </g>
  <g s:type="generic" transform="translate(652,116)" s:width="30" s:height="40" id="cell_c_aluctrl">
    <text x="15" y="-4" class="nodelabel cell_c_aluctrl" s:attribute="ref">ALUControl</text>
    <rect width="30" height="40" s:generic="body" class="cell_c_aluctrl"/>
    <g transform="translate(0,10)" s:x="0" s:y="10" s:pid="in0" id="port_c_aluctrl~func">
      <text x="-3" y="-4" class="inputPortLabel cell_c_aluctrl">func</text>
    </g>
    <g transform="translate(0,30)" s:x="0" s:y="10" s:pid="in0" id="port_c_aluctrl~op">
      <text x="-3" y="-4" class="inputPortLabel cell_c_aluctrl">op</text>
    </g>
    <g transform="translate(30,10)" s:x="30" s:y="10" s:pid="out0" id="port_c_aluctrl~mode">
      <text x="5" y="-4" style="fill:#000; stroke:none" class="cell_c_aluctrl">mode</text>
    </g>
  </g>
  <g s:type="generic" transform="translate(247,136)" s:width="30" s:height="40" id="cell_c_ctrl">
    <text x="15" y="-4" class="nodelabel cell_c_ctrl" s:attribute="ref">Control</text>
    <rect width="30" height="160" s:generic="body" class="cell_c_ctrl"/>
    <g transform="translate(0,10)" s:x="0" s:y="10" s:pid="in0" id="port_c_ctrl~op">
      <text x="-3" y="-4" class="inputPortLabel cell_c_ctrl">op</text>
    </g>
    <g transform="translate(30,10)" s:x="30" s:y="10" s:pid="out0" id="port_c_ctrl~alu_op">
      <text x="5" y="-4" style="fill:#000; stroke:none" class="cell_c_ctrl">alu_op</text>
    </g>
    <g transform="translate(30,30)" s:x="30" s:y="10" s:pid="out0" id="port_c_ctrl~alu_sel">
      <text x="5" y="-4" style="fill:#000; stroke:none" class="cell_c_ctrl">alu_sel</text>
    </g>
    <g transform="translate(30,50)" s:x="30" s:y="10" s:pid="out0" id="port_c_ctrl~branch">
      <text x="5" y="-4" style="fill:#000; stroke:none" class="cell_c_ctrl">branch</text>
    </g>
    <g transform="translate(30,70)" s:x="30" s:y="10" s:pid="out0" id="port_c_ctrl~dr_sel">
      <text x="5" y="-4" style="fill:#000; stroke:none" class="cell_c_ctrl">dr_sel</text>
    </g>
    <g transform="translate(30,90)" s:x="30" s:y="10" s:pid="out0" id="port_c_ctrl~dr_write">
      <text x="5" y="-4" style="fill:#000; stroke:none" class="cell_c_ctrl">dr_write</text>
    </g>
    <g transform="translate(30,110)" s:x="30" s:y="10" s:pid="out0" id="port_c_ctrl~jump">
      <text x="5" y="-4" style="fill:#000; stroke:none" class="cell_c_ctrl">jump</text>
    </g>
    <g transform="translate(30,130)" s:x="30" s:y="10" s:pid="out0" id="port_c_ctrl~mem_to_reg">
      <text x="5" y="-4" style="fill:#000; stroke:none" class="cell_c_ctrl">mem_to_reg</text>
    </g>
    <g transform="translate(30,150)" s:x="30" s:y="10" s:pid="out0" id="port_c_ctrl~mem_write">
      <text x="5" y="-4" style="fill:#000; stroke:none" class="cell_c_ctrl">mem_write</text>
    </g>
  </g>
  <g s:type="generic" transform="translate(108,22)" s:width="30" s:height="40" id="cell_c_id">
    <text x="15" y="-4" class="nodelabel cell_c_id" s:attribute="ref">InstructionDecoder</text>
    <rect width="30" height="140" s:generic="body" class="cell_c_id"/>
    <g transform="translate(0,10)" s:x="0" s:y="10" s:pid="in0" id="port_c_id~instr">
      <text x="-3" y="-4" class="inputPortLabel cell_c_id">instr</text>
    </g>
    <g transform="translate(30,10)" s:x="30" s:y="10" s:pid="out0" id="port_c_id~alu_func">
      <text x="5" y="-4" style="fill:#000; stroke:none" class="cell_c_id">alu_func</text>
    </g>
    <g transform="translate(30,30)" s:x="30" s:y="10" s:pid="out0" id="port_c_id~dr">
      <text x="5" y="-4" style="fill:#000; stroke:none" class="cell_c_id">dr</text>
    </g>
    <g transform="translate(30,50)" s:x="30" s:y="10" s:pid="out0" id="port_c_id~imm">
      <text x="5" y="-4" style="fill:#000; stroke:none" class="cell_c_id">imm</text>
    </g>
    <g transform="translate(30,70)" s:x="30" s:y="10" s:pid="out0" id="port_c_id~jump_addr">
      <text x="5" y="-4" style="fill:#000; stroke:none" class="cell_c_id">jump_addr</text>
    </g>
    <g transform="translate(30,90)" s:x="30" s:y="10" s:pid="out0" id="port_c_id~op">
      <text x="5" y="-4" style="fill:#000; stroke:none" class="cell_c_id">op</text>
    </g>
    <g transform="translate(30,110)" s:x="30" s:y="10" s:pid="out0" id="port_c_id~sr1">
      <text x="5" y="-4" style="fill:#000; stroke:none" class="cell_c_id">sr1</text>
    </g>
    <g transform="translate(30,130)" s:x="30" s:y="10" s:pid="out0" id="port_c_id~sr2">
      <text x="5" y="-4" style="fill:#000; stroke:none" class="cell_c_id">sr2</text>
    </g>
  </g>
  <g s:type="generic" transform="translate(1098,159)" s:width="30" s:height="40" id="cell_c_pc">
    <text x="15" y="-4" class="nodelabel cell_c_pc" s:attribute="ref">ProgramCounter</text>
    <rect width="30" height="60" s:generic="body" class="cell_c_pc"/>
    <g transform="translate(0,10)" s:x="0" s:y="10" s:pid="in0" id="port_c_pc~clock">
      <text x="-3" y="-4" class="inputPortLabel cell_c_pc">clock</text>
    </g>
    <g transform="translate(0,30)" s:x="0" s:y="10" s:pid="in0" id="port_c_pc~nreset">
      <text x="-3" y="-4" class="inputPortLabel cell_c_pc">nreset</text>
    </g>
    <g transform="translate(0,50)" s:x="0" s:y="10" s:pid="in0" id="port_c_pc~pc_next">
      <text x="-3" y="-4" class="inputPortLabel cell_c_pc">pc_next</text>
    </g>
    <g transform="translate(30,10)" s:x="30" s:y="10" s:pid="out0" id="port_c_pc~pc">
      <text x="5" y="-4" style="fill:#000; stroke:none" class="cell_c_pc">pc</text>
    </g>
  </g>
  <g s:type="generic" transform="translate(946,244.5)" s:width="30" s:height="40" id="cell_c_pclogic">
    <text x="15" y="-4" class="nodelabel cell_c_pclogic" s:attribute="ref">PCLogic</text>
    <rect width="30" height="120" s:generic="body" class="cell_c_pclogic"/>
    <g transform="translate(0,10)" s:x="0" s:y="10" s:pid="in0" id="port_c_pclogic~branch">
      <text x="-3" y="-4" class="inputPortLabel cell_c_pclogic">branch</text>
    </g>
    <g transform="translate(0,30)" s:x="0" s:y="10" s:pid="in0" id="port_c_pclogic~branch_addr">
      <text x="-3" y="-4" class="inputPortLabel cell_c_pclogic">branch_addr</text>
    </g>
    <g transform="translate(0,50)" s:x="0" s:y="10" s:pid="in0" id="port_c_pclogic~jump">
      <text x="-3" y="-4" class="inputPortLabel cell_c_pclogic">jump</text>
    </g>
    <g transform="translate(0,70)" s:x="0" s:y="10" s:pid="in0" id="port_c_pclogic~jump_addr">
      <text x="-3" y="-4" class="inputPortLabel cell_c_pclogic">jump_addr</text>
    </g>
    <g transform="translate(0,90)" s:x="0" s:y="10" s:pid="in0" id="port_c_pclogic~pc">
      <text x="-3" y="-4" class="inputPortLabel cell_c_pclogic">pc</text>
    </g>
    <g transform="translate(0,110)" s:x="0" s:y="10" s:pid="in0" id="port_c_pclogic~zero">
      <text x="-3" y="-4" class="inputPortLabel cell_c_pclogic">zero</text>
    </g>
    <g transform="translate(30,10)" s:x="30" s:y="10" s:pid="out0" id="port_c_pclogic~pc_next">
      <text x="5" y="-4" style="fill:#000; stroke:none" class="cell_c_pclogic">pc_next</text>
    </g>
  </g>
  <g s:type="generic" transform="translate(538,531)" s:width="30" s:height="40" id="cell_c_regfile">
    <text x="15" y="-4" class="nodelabel cell_c_regfile" s:attribute="ref">RegisterFile</text>
    <rect width="30" height="100" s:generic="body" class="cell_c_regfile"/>
    <g transform="translate(0,10)" s:x="0" s:y="10" s:pid="in0" id="port_c_regfile~d">
      <text x="-3" y="-4" class="inputPortLabel cell_c_regfile">d</text>
    </g>
    <g transform="translate(0,30)" s:x="0" s:y="10" s:pid="in0" id="port_c_regfile~dr">
      <text x="-3" y="-4" class="inputPortLabel cell_c_regfile">dr</text>
    </g>
    <g transform="translate(0,50)" s:x="0" s:y="10" s:pid="in0" id="port_c_regfile~dr_write">
      <text x="-3" y="-4" class="inputPortLabel cell_c_regfile">dr_write</text>
    </g>
    <g transform="translate(0,70)" s:x="0" s:y="10" s:pid="in0" id="port_c_regfile~sr1">
      <text x="-3" y="-4" class="inputPortLabel cell_c_regfile">sr1</text>
    </g>
    <g transform="translate(0,90)" s:x="0" s:y="10" s:pid="in0" id="port_c_regfile~sr2">
      <text x="-3" y="-4" class="inputPortLabel cell_c_regfile">sr2</text>
    </g>
    <g transform="translate(30,10)" s:x="30" s:y="10" s:pid="out0" id="port_c_regfile~s1">
      <text x="5" y="-4" style="fill:#000; stroke:none" class="cell_c_regfile">s1</text>
    </g>
    <g transform="translate(30,30)" s:x="30" s:y="10" s:pid="out0" id="port_c_regfile~s2">
      <text x="5" y="-4" style="fill:#000; stroke:none" class="cell_c_regfile">s2</text>
    </g>
  </g>
  <g s:type="generic" transform="translate(518,62)" s:width="30" s:height="40" id="cell_c_se">
    <text x="15" y="-4" class="nodelabel cell_c_se" s:attribute="ref">SignExtender</text>
    <rect width="30" height="20" s:generic="body" class="cell_c_se"/>
    <g transform="translate(0,10)" s:x="0" s:y="10" s:pid="in0" id="port_c_se~imm">
      <text x="-3" y="-4" class="inputPortLabel cell_c_se">imm</text>
    </g>
    <g transform="translate(30,10)" s:x="30" s:y="10" s:pid="out0" id="port_c_se~imm_ext">
      <text x="5" y="-4" style="fill:#000; stroke:none" class="cell_c_se">imm_ext</text>
    </g>
  </g>
  <g s:type="inputExt" transform="translate(12,22.5)" s:width="30" s:height="20" id="cell_instr">
    <text x="15" y="-4" class="nodelabel cell_instr" s:attribute="ref">instr</text>
    <s:alias val="$_inputExt_"/>
    <path d="M0,0 L0,20 L15,20 L30,10 L15,0 Z" class="cell_instr"/>
    <g s:x="28" s:y="10" s:pid="Y"/>
  </g>
  <g s:type="outputExt" transform="translate(1177,159.5)" s:width="30" s:height="20" id="cell_pc">
    <text x="15" y="-4" class="nodelabel cell_pc" s:attribute="ref">pc</text>
    <s:alias val="$_outputExt_"/>
    <path d="M30,0 L30,20 L15,20 L0,10 L15,0 Z" class="cell_pc"/>
    <g s:x="0" s:y="10" s:pid="A"/>
  </g>
  <g s:type="inputExt" transform="translate(1098,480)" s:width="30" s:height="20" id="cell_rval">
    <text x="15" y="-4" class="nodelabel cell_rval" s:attribute="ref">rval</text>
    <s:alias val="$_inputExt_"/>
    <path d="M0,0 L0,20 L15,20 L30,10 L15,0 Z" class="cell_rval"/>
    <g s:x="28" s:y="10" s:pid="Y"/>
  </g>
  <g s:type="outputExt" transform="translate(1177,551.5)" s:width="30" s:height="20" id="cell_wval">
    <text x="15" y="-4" class="nodelabel cell_wval" s:attribute="ref">wval</text>
    <s:alias val="$_outputExt_"/>
    <path d="M30,0 L30,20 L15,20 L0,10 L15,0 Z" class="cell_wval"/>
    <g s:x="0" s:y="10" s:pid="A"/>
  </g>
  <g s:type="outputExt" transform="translate(1177,377.5)" s:width="30" s:height="20" id="cell_addr">
    <text x="15" y="-4" class="nodelabel cell_addr" s:attribute="ref">addr</text>
    <s:alias val="$_outputExt_"/>
    <path d="M30,0 L30,20 L15,20 L0,10 L15,0 Z" class="cell_addr"/>
    <g s:x="0" s:y="10" s:pid="A"/>
  </g>
  <g s:type="outputExt" transform="translate(1177,634)" s:width="30" s:height="20" id="cell_write">
    <text x="15" y="-4" class="nodelabel cell_write" s:attribute="ref">write</text>
    <s:alias val="$_outputExt_"/>
    <path d="M30,0 L30,20 L15,20 L0,10 L15,0 Z" class="cell_write"/>
    <g s:x="0" s:y="10" s:pid="A"/>
  </g>
  <g s:type="inputExt" transform="translate(946,114.5)" s:width="30" s:height="20" id="cell_clock">
    <text x="15" y="-4" class="nodelabel cell_clock" s:attribute="ref">clock</text>
    <s:alias val="$_inputExt_"/>
    <path d="M0,0 L0,20 L15,20 L30,10 L15,0 Z" class="cell_clock"/>
    <g s:x="28" s:y="10" s:pid="Y"/>
  </g>
  <g s:type="inputExt" transform="translate(946,179.5)" s:width="30" s:height="20" id="cell_nreset">
    <text x="15" y="-4" class="nodelabel cell_nreset" s:attribute="ref">nreset</text>
    <s:alias val="$_inputExt_"/>
    <path d="M0,0 L0,20 L15,20 L30,10 L15,0 Z" class="cell_nreset"/>
    <g s:x="28" s:y="10" s:pid="Y"/>
  </g>
  <line x1="804" x2="1152" y1="387.5" y2="387.5" class="net_130,131,132,133,134,135,136,137,138,139,140,141,142,143,144,145,146,147,148,149,150,151,152,153,154,155,156,157,158,159,160,161"/>
  <line x1="1152" x2="1152" y1="387.5" y2="470" class="net_130,131,132,133,134,135,136,137,138,139,140,141,142,143,144,145,146,147,148,149,150,151,152,153,154,155,156,157,158,159,160,161"/>
  <circle cx="1152" cy="387.5" r="2" style="fill:#000" class="net_130,131,132,133,134,135,136,137,138,139,140,141,142,143,144,145,146,147,148,149,150,151,152,153,154,155,156,157,158,159,160,161"/>
  <line x1="1152" x2="1177" y1="470" y2="470" class="net_130,131,132,133,134,135,136,137,138,139,140,141,142,143,144,145,146,147,148,149,150,151,152,153,154,155,156,157,158,159,160,161"/>
  <line x1="804" x2="1177" y1="387.5" y2="387.5" class="net_130,131,132,133,134,135,136,137,138,139,140,141,142,143,144,145,146,147,148,149,150,151,152,153,154,155,156,157,158,159,160,161"/>
  <line x1="1126" x2="1177" y1="490" y2="490" class="net_66,67,68,69,70,71,72,73,74,75,76,77,78,79,80,81,82,83,84,85,86,87,88,89,90,91,92,93,94,95,96,97"/>
  <line x1="278" x2="359" y1="266.5" y2="266.5" class="net_165"/>
  <line x1="359" x2="359" y1="266.5" y2="510" class="net_165"/>
  <line x1="359" x2="1187" y1="510" y2="510" class="net_165"/>
  <line x1="1187" x2="1187" y1="510" y2="495" class="net_165"/>
  <line x1="139" x2="204" y1="152.5" y2="152.5" class="net_198,199,200,201,202"/>
  <line x1="204" x2="204" y1="152.5" y2="666" class="net_198,199,200,201,202"/>
  <line x1="204" x2="399" y1="666" y2="666" class="net_198,199,200,201,202"/>
  <line x1="399" x2="399" y1="666" y2="276" class="net_198,199,200,201,202"/>
  <circle cx="399" cy="666" r="2" style="fill:#000" class="net_198,199,200,201,202"/>
  <line x1="399" x2="429" y1="276" y2="276" class="net_198,199,200,201,202"/>
  <line x1="139" x2="204" y1="152.5" y2="152.5" class="net_198,199,200,201,202"/>
  <line x1="204" x2="204" y1="152.5" y2="666" class="net_198,199,200,201,202"/>
  <line x1="204" x2="469" y1="666" y2="666" class="net_198,199,200,201,202"/>
  <line x1="469" x2="469" y1="666" y2="621.5" class="net_198,199,200,201,202"/>
  <line x1="469" x2="538" y1="621.5" y2="621.5" class="net_198,199,200,201,202"/>
  <line x1="139" x2="419" y1="52.5" y2="52.5" class="net_203,204,205,206,207"/>
  <line x1="419" x2="419" y1="52.5" y2="296" class="net_203,204,205,206,207"/>
  <line x1="419" x2="429" y1="296" y2="296" class="net_203,204,205,206,207"/>
  <line x1="278" x2="389" y1="206.5" y2="206.5" class="net_208"/>
  <line x1="389" x2="389" y1="206.5" y2="316" class="net_208"/>
  <line x1="389" x2="439" y1="316" y2="316" class="net_208"/>
  <line x1="439" x2="439" y1="316" y2="301" class="net_208"/>
  <line x1="569" x2="612" y1="561.5" y2="561.5" class="net_98,99,100,101,102,103,104,105,106,107,108,109,110,111,112,113,114,115,116,117,118,119,120,121,122,123,124,125,126,127,128,129"/>
  <line x1="612" x2="612" y1="561.5" y2="204" class="net_98,99,100,101,102,103,104,105,106,107,108,109,110,111,112,113,114,115,116,117,118,119,120,121,122,123,124,125,126,127,128,129"/>
  <circle cx="612" cy="561.5" r="2" style="fill:#000" class="net_98,99,100,101,102,103,104,105,106,107,108,109,110,111,112,113,114,115,116,117,118,119,120,121,122,123,124,125,126,127,128,129"/>
  <line x1="612" x2="655.6666666666666" y1="204" y2="204" class="net_98,99,100,101,102,103,104,105,106,107,108,109,110,111,112,113,114,115,116,117,118,119,120,121,122,123,124,125,126,127,128,129"/>
  <line x1="569" x2="1177" y1="561.5" y2="561.5" class="net_98,99,100,101,102,103,104,105,106,107,108,109,110,111,112,113,114,115,116,117,118,119,120,121,122,123,124,125,126,127,128,129"/>
  <line x1="549" x2="602" y1="72.5" y2="72.5" class="net_214,215,216,217,218,219,220,221,222,223,224,225,226,227,228,229,230,231,232,233,234,235,236,237,238,239,240,241,242,243,244,245"/>
  <line x1="602" x2="602" y1="72.5" y2="224" class="net_214,215,216,217,218,219,220,221,222,223,224,225,226,227,228,229,230,231,232,233,234,235,236,237,238,239,240,241,242,243,244,245"/>
  <circle cx="602" cy="72.5" r="2" style="fill:#000" class="net_214,215,216,217,218,219,220,221,222,223,224,225,226,227,228,229,230,231,232,233,234,235,236,237,238,239,240,241,242,243,244,245"/>
  <line x1="602" x2="655.6666666666666" y1="224" y2="224" class="net_214,215,216,217,218,219,220,221,222,223,224,225,226,227,228,229,230,231,232,233,234,235,236,237,238,239,240,241,242,243,244,245"/>
  <line x1="549" x2="849" y1="72.5" y2="72.5" class="net_214,215,216,217,218,219,220,221,222,223,224,225,226,227,228,229,230,231,232,233,234,235,236,237,238,239,240,241,242,243,244,245"/>
  <line x1="849" x2="849" y1="72.5" y2="275" class="net_214,215,216,217,218,219,220,221,222,223,224,225,226,227,228,229,230,231,232,233,234,235,236,237,238,239,240,241,242,243,244,245"/>
  <line x1="849" x2="946" y1="275" y2="275" class="net_214,215,216,217,218,219,220,221,222,223,224,225,226,227,228,229,230,231,232,233,234,235,236,237,238,239,240,241,242,243,244,245"/>
  <line x1="278" x2="409" y1="166.5" y2="166.5" class="net_246"/>
  <line x1="409" x2="409" y1="166.5" y2="244" class="net_246"/>
  <line x1="409" x2="665.6666666666666" y1="244" y2="244" class="net_246"/>
  <line x1="665.6666666666666" x2="665.6666666666666" y1="244" y2="229" class="net_246"/>
  <line x1="569" x2="718" y1="541.5" y2="541.5" class="net_279,280,281,282,283,284,285,286,287,288,289,290,291,292,293,294,295,296,297,298,299,300,301,302,303,304,305,306,307,308,309,310"/>
  <line x1="718" x2="718" y1="541.5" y2="387.5" class="net_279,280,281,282,283,284,285,286,287,288,289,290,291,292,293,294,295,296,297,298,299,300,301,302,303,304,305,306,307,308,309,310"/>
  <line x1="718" x2="773" y1="387.5" y2="387.5" class="net_279,280,281,282,283,284,285,286,287,288,289,290,291,292,293,294,295,296,297,298,299,300,301,302,303,304,305,306,307,308,309,310"/>
  <line x1="675.6666666666666" x2="728" y1="214" y2="214" class="net_247,248,249,250,251,252,253,254,255,256,257,258,259,260,261,262,263,264,265,266,267,268,269,270,271,272,273,274,275,276,277,278"/>
  <line x1="728" x2="728" y1="214" y2="407.5" class="net_247,248,249,250,251,252,253,254,255,256,257,258,259,260,261,262,263,264,265,266,267,268,269,270,271,272,273,274,275,276,277,278"/>
  <line x1="728" x2="773" y1="407.5" y2="407.5" class="net_247,248,249,250,251,252,253,254,255,256,257,258,259,260,261,262,263,264,265,266,267,268,269,270,271,272,273,274,275,276,277,278"/>
  <line x1="683" x2="738" y1="126.5" y2="126.5" class="net_311,312,313,314"/>
  <line x1="738" x2="738" y1="126.5" y2="427.5" class="net_311,312,313,314"/>
  <line x1="738" x2="773" y1="427.5" y2="427.5" class="net_311,312,313,314"/>
  <line x1="139" x2="612" y1="32.5" y2="32.5" class="net_316,317,318,319,320,321"/>
  <line x1="612" x2="612" y1="32.5" y2="126.5" class="net_316,317,318,319,320,321"/>
  <line x1="612" x2="652" y1="126.5" y2="126.5" class="net_316,317,318,319,320,321"/>
  <line x1="278" x2="652" y1="146.5" y2="146.5" class="net_322"/>
  <line x1="139" x2="224" y1="112.5" y2="112.5" class="net_326,327,328,329,330,331"/>
  <line x1="224" x2="224" y1="112.5" y2="146.5" class="net_326,327,328,329,330,331"/>
  <line x1="224" x2="247" y1="146.5" y2="146.5" class="net_326,327,328,329,330,331"/>
  <line x1="40" x2="108" y1="32.5" y2="32.5" class="net_2,3,4,5,6,7,8,9,10,11,12,13,14,15,16,17,18,19,20,21,22,23,24,25,26,27,28,29,30,31,32,33"/>
  <line x1="974" x2="1030" y1="124.5" y2="124.5" class="net_163"/>
  <line x1="1030" x2="1030" y1="124.5" y2="169.5" class="net_163"/>
  <line x1="1030" x2="1098" y1="169.5" y2="169.5" class="net_163"/>
  <line x1="974" x2="1098" y1="189.5" y2="189.5" class="net_164"/>
  <line x1="977" x2="1030" y1="255" y2="255" class="net_379,380,381,382,383,384,385,386,387,388,389,390,391,392,393,394,395,396,397,398,399,400,401,402,403,404,405,406,407,408,409,410"/>
  <line x1="1030" x2="1030" y1="255" y2="209.5" class="net_379,380,381,382,383,384,385,386,387,388,389,390,391,392,393,394,395,396,397,398,399,400,401,402,403,404,405,406,407,408,409,410"/>
  <line x1="1030" x2="1098" y1="209.5" y2="209.5" class="net_379,380,381,382,383,384,385,386,387,388,389,390,391,392,393,394,395,396,397,398,399,400,401,402,403,404,405,406,407,408,409,410"/>
  <line x1="278" x2="399" y1="186.5" y2="186.5" class="net_323"/>
  <line x1="399" x2="399" y1="186.5" y2="255" class="net_323"/>
  <line x1="399" x2="946" y1="255" y2="255" class="net_323"/>
  <line x1="278" x2="369" y1="246.5" y2="246.5" class="net_325"/>
  <line x1="369" x2="369" y1="246.5" y2="337" class="net_325"/>
  <line x1="369" x2="849" y1="337" y2="337" class="net_325"/>
  <line x1="849" x2="849" y1="337" y2="295" class="net_325"/>
  <line x1="849" x2="946" y1="295" y2="295" class="net_325"/>
  <line x1="139" x2="204" y1="92.5" y2="92.5" class="net_348,349,350,351,352,353,354,355,356,357,358,359,360,361,362,363,364,365,366,367,368,369,370,371,372,373"/>
  <line x1="204" x2="204" y1="92.5" y2="95" class="net_348,349,350,351,352,353,354,355,356,357,358,359,360,361,362,363,364,365,366,367,368,369,370,371,372,373"/>
  <line x1="204" x2="839" y1="95" y2="95" class="net_348,349,350,351,352,353,354,355,356,357,358,359,360,361,362,363,364,365,366,367,368,369,370,371,372,373"/>
  <line x1="839" x2="839" y1="95" y2="315" class="net_348,349,350,351,352,353,354,355,356,357,358,359,360,361,362,363,364,365,366,367,368,369,370,371,372,373"/>
  <line x1="839" x2="946" y1="315" y2="315" class="net_348,349,350,351,352,353,354,355,356,357,358,359,360,361,362,363,364,365,366,367,368,369,370,371,372,373"/>
  <line x1="1129" x2="1152" y1="169.5" y2="169.5" class="net_34,35,36,37,38,39,40,41,42,43,44,45,46,47,48,49,50,51,52,53,54,55,56,57,58,59,60,61,62,63,64,65"/>
  <line x1="1152" x2="1152" y1="169.5" y2="377.5" class="net_34,35,36,37,38,39,40,41,42,43,44,45,46,47,48,49,50,51,52,53,54,55,56,57,58,59,60,61,62,63,64,65"/>
  <line x1="1152" x2="859" y1="377.5" y2="377.5" class="net_34,35,36,37,38,39,40,41,42,43,44,45,46,47,48,49,50,51,52,53,54,55,56,57,58,59,60,61,62,63,64,65"/>
  <line x1="859" x2="859" y1="377.5" y2="335" class="net_34,35,36,37,38,39,40,41,42,43,44,45,46,47,48,49,50,51,52,53,54,55,56,57,58,59,60,61,62,63,64,65"/>
  <circle cx="1152" cy="169.5" r="2" style="fill:#000" class="net_34,35,36,37,38,39,40,41,42,43,44,45,46,47,48,49,50,51,52,53,54,55,56,57,58,59,60,61,62,63,64,65"/>
  <line x1="859" x2="946" y1="335" y2="335" class="net_34,35,36,37,38,39,40,41,42,43,44,45,46,47,48,49,50,51,52,53,54,55,56,57,58,59,60,61,62,63,64,65"/>
  <line x1="1129" x2="1177" y1="169.5" y2="169.5" class="net_34,35,36,37,38,39,40,41,42,43,44,45,46,47,48,49,50,51,52,53,54,55,56,57,58,59,60,61,62,63,64,65"/>
  <line x1="804" x2="869" y1="407.5" y2="407.5" class="net_315"/>
  <line x1="869" x2="869" y1="407.5" y2="355" class="net_315"/>
  <line x1="869" x2="946" y1="355" y2="355" class="net_315"/>
  <line x1="1197" x2="1217" y1="480" y2="480" class="net_166,167,168,169,170,171,172,173,174,175,176,177,178,179,180,181,182,183,184,185,186,187,188,189,190,191,192,193,194,195,196,197"/>
  <line x1="1217" x2="1217" y1="480" y2="450" class="net_166,167,168,169,170,171,172,173,174,175,176,177,178,179,180,181,182,183,184,185,186,187,188,189,190,191,192,193,194,195,196,197"/>
  <line x1="1217" x2="479" y1="450" y2="450" class="net_166,167,168,169,170,171,172,173,174,175,176,177,178,179,180,181,182,183,184,185,186,187,188,189,190,191,192,193,194,195,196,197"/>
  <line x1="479" x2="479" y1="450" y2="541.5" class="net_166,167,168,169,170,171,172,173,174,175,176,177,178,179,180,181,182,183,184,185,186,187,188,189,190,191,192,193,194,195,196,197"/>
  <line x1="479" x2="538" y1="541.5" y2="541.5" class="net_166,167,168,169,170,171,172,173,174,175,176,177,178,179,180,181,182,183,184,185,186,187,188,189,190,191,192,193,194,195,196,197"/>
  <line x1="449" x2="469" y1="286" y2="286" class="net_209,210,211,212,213"/>
  <line x1="469" x2="469" y1="286" y2="561.5" class="net_209,210,211,212,213"/>
  <line x1="469" x2="538" y1="561.5" y2="561.5" class="net_209,210,211,212,213"/>
  <line x1="278" x2="379" y1="226.5" y2="226.5" class="net_324"/>
  <line x1="379" x2="379" y1="226.5" y2="326" class="net_324"/>
  <line x1="379" x2="459" y1="326" y2="326" class="net_324"/>
  <line x1="459" x2="459" y1="326" y2="581.5" class="net_324"/>
  <line x1="459" x2="538" y1="581.5" y2="581.5" class="net_324"/>
  <line x1="139" x2="214" y1="132.5" y2="132.5" class="net_374,375,376,377,378"/>
  <line x1="214" x2="214" y1="132.5" y2="655" class="net_374,375,376,377,378"/>
  <line x1="214" x2="459" y1="655" y2="655" class="net_374,375,376,377,378"/>
  <line x1="459" x2="459" y1="655" y2="601.5" class="net_374,375,376,377,378"/>
  <line x1="459" x2="538" y1="601.5" y2="601.5" class="net_374,375,376,377,378"/>
  <line x1="139" x2="518" y1="72.5" y2="72.5" class="net_332,333,334,335,336,337,338,339,340,341,342,343,344,345,346,347"/>
  <line x1="278" x2="349" y1="286.5" y2="286.5" class="net_162"/>
  <line x1="349" x2="349" y1="286.5" y2="644" class="net_162"/>
  <line x1="349" x2="1177" y1="644" y2="644" class="net_162"/>
</svg>
