<svg xmlns="http://www.w3.org/2000/svg" xmlns:xlink="http://www.w3.org/1999/xlink" xmlns:s="https://github.com/nturley/netlistsvg" width="1215" height="748.5">
  <style>svg {
    stroke:#000;
    fill:none;
  }
  text {
    fill:#000;
    stroke:none;
    font-size:10px;
    font-weight: bold;
    font-family: "Courier New", monospace;
  }
  .nodelabel {
    text-anchor: middle;
  }
  .inputPortLabel {
    text-anchor: end;
  }
  .splitjoinBody {
    fill:#000;
  }</style>
  <g s:type="mux" transform="translate(449,571.5)" s:width="20" s:height="40" id="cell_$ternary$build/mps/CPU.v:116$1">
    <s:alias val="$pmux"/>
    <s:alias val="$mux"/>
    <s:alias val="$_MUX_"/>
    <path d="M0,0 L20,10 L20,30 L0,40 Z" class="cell_$ternary$build/mps/CPU.v:116$1"/>
    <g s:x="0" s:y="10" s:pid="A"/>
    <g s:x="0" s:y="30" s:pid="B"/>
    <g s:x="10" s:y="35" s:pid="S"/>
    <g s:x="20" s:y="20" s:pid="Y"/>
  </g>
  <g s:type="mux" transform="translate(681.6666666666666,165)" s:width="20" s:height="40" id="cell_$ternary$build/mps/CPU.v:117$2">
    <s:alias val="$pmux"/>
    <s:alias val="$mux"/>
    <s:alias val="$_MUX_"/>
    <path d="M0,0 L20,10 L20,30 L0,40 Z" class="cell_$ternary$build/mps/CPU.v:117$2"/>
    <g s:x="0" s:y="10" s:pid="A"/>
    <g s:x="0" s:y="30" s:pid="B"/>
    <g s:x="10" s:y="35" s:pid="S"/>
    <g s:x="20" s:y="20" s:pid="Y"/>
  </g>
  <g s:type="mux" transform="translate(1163,448.5)" s:width="20" s:height="40" id="cell_$ternary$build/mps/CPU.v:118$3">
    <s:alias val="$pmux"/>
    <s:alias val="$mux"/>
    <s:alias val="$_MUX_"/>
    <path d="M0,0 L20,10 L20,30 L0,40 Z" class="cell_$ternary$build/mps/CPU.v:118$3"/>
    <g s:x="0" s:y="10" s:pid="A"/>
    <g s:x="0" s:y="30" s:pid="B"/>
    <g s:x="10" s:y="35" s:pid="S"/>
    <g s:x="20" s:y="20" s:pid="Y"/>
  </g>
  <g s:type="generic" transform="translate(799,393)" s:width="30" s:height="40" id="cell_alu">
    <text x="15" y="-4" class="nodelabel cell_alu" s:attribute="ref">ALU</text>
    <rect width="30" height="60" s:generic="body" class="cell_alu"/>
    <g transform="translate(0,10)" s:x="0" s:y="10" s:pid="in0" id="port_alu~a">
      <text x="-3" y="-4" class="inputPortLabel cell_alu">a</text>
    </g>
    <g transform="translate(0,30)" s:x="0" s:y="10" s:pid="in0" id="port_alu~b">
      <text x="-3" y="-4" class="inputPortLabel cell_alu">b</text>
    </g>
    <g transform="translate(0,50)" s:x="0" s:y="10" s:pid="in0" id="port_alu~mode">
      <text x="-3" y="-4" class="inputPortLabel cell_alu">mode</text>
    </g>
    <g transform="translate(30,10)" s:x="30" s:y="10" s:pid="out0" id="port_alu~z">
      <text x="5" y="-4" style="fill:#000; stroke:none" class="cell_alu">z</text>
    </g>
    <g transform="translate(30,30)" s:x="30" s:y="10" s:pid="out0" id="port_alu~zero">
      <text x="5" y="-4" style="fill:#000; stroke:none" class="cell_alu">zero</text>
    </g>
  </g>
  <g s:type="generic" transform="translate(678,87)" s:width="30" s:height="40" id="cell_c_aluctrl">
    <text x="15" y="-4" class="nodelabel cell_c_aluctrl" s:attribute="ref">ALUControl</text>
    <rect width="30" height="40" s:generic="body" class="cell_c_aluctrl"/>
    <g transform="translate(0,10)" s:x="0" s:y="10" s:pid="in0" id="port_c_aluctrl~func">
      <text x="-3" y="-4" class="inputPortLabel cell_c_aluctrl">func</text>
    </g>
    <g transform="translate(0,30)" s:x="0" s:y="10" s:pid="in0" id="port_c_aluctrl~op">
      <text x="-3" y="-4" class="inputPortLabel cell_c_aluctrl">op</text>
    </g>
    <g transform="translate(30,10)" s:x="30" s:y="10" s:pid="out0" id="port_c_aluctrl~mode">
      <text x="5" y="-4" style="fill:#000; stroke:none" class="cell_c_aluctrl">mode</text>
    </g>
  </g>
  <g s:type="generic" transform="translate(257,491)" s:width="30" s:height="40" id="cell_c_ctrl">
    <text x="15" y="-4" class="nodelabel cell_c_ctrl" s:attribute="ref">Control</text>
    <rect width="30" height="160" s:generic="body" class="cell_c_ctrl"/>
    <g transform="translate(0,10)" s:x="0" s:y="10" s:pid="in0" id="port_c_ctrl~op">
      <text x="-3" y="-4" class="inputPortLabel cell_c_ctrl">op</text>
    </g>
    <g transform="translate(30,10)" s:x="30" s:y="10" s:pid="out0" id="port_c_ctrl~alu_op">
      <text x="5" y="-4" style="fill:#000; stroke:none" class="cell_c_ctrl">alu_op</text>
    </g>
    <g transform="translate(30,30)" s:x="30" s:y="10" s:pid="out0" id="port_c_ctrl~alu_sel">
      <text x="5" y="-4" style="fill:#000; stroke:none" class="cell_c_ctrl">alu_sel</text>
    </g>
    <g transform="translate(30,50)" s:x="30" s:y="10" s:pid="out0" id="port_c_ctrl~branch">
      <text x="5" y="-4" style="fill:#000; stroke:none" class="cell_c_ctrl">branch</text>
    </g>
    <g transform="translate(30,70)" s:x="30" s:y="10" s:pid="out0" id="port_c_ctrl~jump">
      <text x="5" y="-4" style="fill:#000; stroke:none" class="cell_c_ctrl">jump</text>
    </g>
    <g transform="translate(30,90)" s:x="30" s:y="10" s:pid="out0" id="port_c_ctrl~mem_to_reg">
      <text x="5" y="-4" style="fill:#000; stroke:none" class="cell_c_ctrl">mem_to_reg</text>
    </g>
    <g transform="translate(30,110)" s:x="30" s:y="10" s:pid="out0" id="port_c_ctrl~mem_write">
      <text x="5" y="-4" style="fill:#000; stroke:none" class="cell_c_ctrl">mem_write</text>
    </g>
    <g transform="translate(30,130)" s:x="30" s:y="10" s:pid="out0" id="port_c_ctrl~reg_d_sel">
      <text x="5" y="-4" style="fill:#000; stroke:none" class="cell_c_ctrl">reg_d_sel</text>
    </g>
    <g transform="translate(30,150)" s:x="30" s:y="10" s:pid="out0" id="port_c_ctrl~reg_write">
      <text x="5" y="-4" style="fill:#000; stroke:none" class="cell_c_ctrl">reg_write</text>
    </g>
  </g>
  <g s:type="generic" transform="translate(108,573.5)" s:width="30" s:height="40" id="cell_c_id">
    <text x="15" y="-4" class="nodelabel cell_c_id" s:attribute="ref">InstructionDecoder</text>
    <rect width="30" height="140" s:generic="body" class="cell_c_id"/>
    <g transform="translate(0,10)" s:x="0" s:y="10" s:pid="in0" id="port_c_id~instr">
      <text x="-3" y="-4" class="inputPortLabel cell_c_id">instr</text>
    </g>
    <g transform="translate(30,10)" s:x="30" s:y="10" s:pid="out0" id="port_c_id~func">
      <text x="5" y="-4" style="fill:#000; stroke:none" class="cell_c_id">func</text>
    </g>
    <g transform="translate(30,30)" s:x="30" s:y="10" s:pid="out0" id="port_c_id~imm">
      <text x="5" y="-4" style="fill:#000; stroke:none" class="cell_c_id">imm</text>
    </g>
    <g transform="translate(30,50)" s:x="30" s:y="10" s:pid="out0" id="port_c_id~jump_addr">
      <text x="5" y="-4" style="fill:#000; stroke:none" class="cell_c_id">jump_addr</text>
    </g>
    <g transform="translate(30,70)" s:x="30" s:y="10" s:pid="out0" id="port_c_id~op">
      <text x="5" y="-4" style="fill:#000; stroke:none" class="cell_c_id">op</text>
    </g>
    <g transform="translate(30,90)" s:x="30" s:y="10" s:pid="out0" id="port_c_id~reg_d">
      <text x="5" y="-4" style="fill:#000; stroke:none" class="cell_c_id">reg_d</text>
    </g>
    <g transform="translate(30,110)" s:x="30" s:y="10" s:pid="out0" id="port_c_id~reg_s">
      <text x="5" y="-4" style="fill:#000; stroke:none" class="cell_c_id">reg_s</text>
    </g>
    <g transform="translate(30,130)" s:x="30" s:y="10" s:pid="out0" id="port_c_id~reg_t">
      <text x="5" y="-4" style="fill:#000; stroke:none" class="cell_c_id">reg_t</text>
    </g>
  </g>
  <g s:type="generic" transform="translate(1084,175.5)" s:width="30" s:height="40" id="cell_c_pc">
    <text x="15" y="-4" class="nodelabel cell_c_pc" s:attribute="ref">ProgramCounter</text>
    <rect width="30" height="60" s:generic="body" class="cell_c_pc"/>
    <g transform="translate(0,10)" s:x="0" s:y="10" s:pid="in0" id="port_c_pc~clock">
      <text x="-3" y="-4" class="inputPortLabel cell_c_pc">clock</text>
    </g>
    <g transform="translate(0,30)" s:x="0" s:y="10" s:pid="in0" id="port_c_pc~next_pc">
      <text x="-3" y="-4" class="inputPortLabel cell_c_pc">next_pc</text>
    </g>
    <g transform="translate(0,50)" s:x="0" s:y="10" s:pid="in0" id="port_c_pc~nreset">
      <text x="-3" y="-4" class="inputPortLabel cell_c_pc">nreset</text>
    </g>
    <g transform="translate(30,10)" s:x="30" s:y="10" s:pid="out0" id="port_c_pc~pc">
      <text x="5" y="-4" style="fill:#000; stroke:none" class="cell_c_pc">pc</text>
    </g>
  </g>
  <g s:type="generic" transform="translate(564,633.5)" s:width="30" s:height="40" id="cell_c_regfile">
    <text x="15" y="-4" class="nodelabel cell_c_regfile" s:attribute="ref">RegisterFile</text>
    <rect width="30" height="100" s:generic="body" class="cell_c_regfile"/>
    <g transform="translate(0,10)" s:x="0" s:y="10" s:pid="in0" id="port_c_regfile~d">
      <text x="-3" y="-4" class="inputPortLabel cell_c_regfile">d</text>
    </g>
    <g transform="translate(0,30)" s:x="0" s:y="10" s:pid="in0" id="port_c_regfile~reg_d">
      <text x="-3" y="-4" class="inputPortLabel cell_c_regfile">reg_d</text>
    </g>
    <g transform="translate(0,50)" s:x="0" s:y="10" s:pid="in0" id="port_c_regfile~reg_s">
      <text x="-3" y="-4" class="inputPortLabel cell_c_regfile">reg_s</text>
    </g>
    <g transform="translate(0,70)" s:x="0" s:y="10" s:pid="in0" id="port_c_regfile~reg_t">
      <text x="-3" y="-4" class="inputPortLabel cell_c_regfile">reg_t</text>
    </g>
    <g transform="translate(0,90)" s:x="0" s:y="10" s:pid="in0" id="port_c_regfile~reg_write">
      <text x="-3" y="-4" class="inputPortLabel cell_c_regfile">reg_write</text>
    </g>
    <g transform="translate(30,10)" s:x="30" s:y="10" s:pid="out0" id="port_c_regfile~s">
      <text x="5" y="-4" style="fill:#000; stroke:none" class="cell_c_regfile">s</text>
    </g>
    <g transform="translate(30,30)" s:x="30" s:y="10" s:pid="out0" id="port_c_regfile~t">
      <text x="5" y="-4" style="fill:#000; stroke:none" class="cell_c_regfile">t</text>
    </g>
  </g>
  <g s:type="generic" transform="translate(544,33)" s:width="30" s:height="40" id="cell_c_se">
    <text x="15" y="-4" class="nodelabel cell_c_se" s:attribute="ref">SignExtender</text>
    <rect width="30" height="20" s:generic="body" class="cell_c_se"/>
    <g transform="translate(0,10)" s:x="0" s:y="10" s:pid="in0" id="port_c_se~imm">
      <text x="-3" y="-4" class="inputPortLabel cell_c_se">imm</text>
    </g>
    <g transform="translate(30,10)" s:x="30" s:y="10" s:pid="out0" id="port_c_se~imm_ext">
      <text x="5" y="-4" style="fill:#000; stroke:none" class="cell_c_se">imm_ext</text>
    </g>
  </g>
  <g s:type="generic" transform="translate(932,195.5)" s:width="30" s:height="40" id="cell_pc_next">
    <text x="15" y="-4" class="nodelabel cell_pc_next" s:attribute="ref">PCNext</text>
    <rect width="30" height="120" s:generic="body" class="cell_pc_next"/>
    <g transform="translate(0,10)" s:x="0" s:y="10" s:pid="in0" id="port_pc_next~addr">
      <text x="-3" y="-4" class="inputPortLabel cell_pc_next">addr</text>
    </g>
    <g transform="translate(0,30)" s:x="0" s:y="10" s:pid="in0" id="port_pc_next~branch">
      <text x="-3" y="-4" class="inputPortLabel cell_pc_next">branch</text>
    </g>
    <g transform="translate(0,50)" s:x="0" s:y="10" s:pid="in0" id="port_pc_next~imm">
      <text x="-3" y="-4" class="inputPortLabel cell_pc_next">imm</text>
    </g>
    <g transform="translate(0,70)" s:x="0" s:y="10" s:pid="in0" id="port_pc_next~jump">
      <text x="-3" y="-4" class="inputPortLabel cell_pc_next">jump</text>
    </g>
    <g transform="translate(0,90)" s:x="0" s:y="10" s:pid="in0" id="port_pc_next~pc">
      <text x="-3" y="-4" class="inputPortLabel cell_pc_next">pc</text>
    </g>
    <g transform="translate(0,110)" s:x="0" s:y="10" s:pid="in0" id="port_pc_next~zero">
      <text x="-3" y="-4" class="inputPortLabel cell_pc_next">zero</text>
    </g>
    <g transform="translate(30,10)" s:x="30" s:y="10" s:pid="out0" id="port_pc_next~next_pc">
      <text x="5" y="-4" style="fill:#000; stroke:none" class="cell_pc_next">next_pc</text>
    </g>
  </g>
  <g s:type="inputExt" transform="translate(12,574)" s:width="30" s:height="20" id="cell_instr">
    <text x="15" y="-4" class="nodelabel cell_instr" s:attribute="ref">instr</text>
    <s:alias val="$_inputExt_"/>
    <path d="M0,0 L0,20 L15,20 L30,10 L15,0 Z" class="cell_instr"/>
    <g s:x="28" s:y="10" s:pid="Y"/>
  </g>
  <g s:type="outputExt" transform="translate(1163,176)" s:width="30" s:height="20" id="cell_pc">
    <text x="15" y="-4" class="nodelabel cell_pc" s:attribute="ref">pc</text>
    <s:alias val="$_outputExt_"/>
    <path d="M30,0 L30,20 L15,20 L0,10 L15,0 Z" class="cell_pc"/>
    <g s:x="0" s:y="10" s:pid="A"/>
  </g>
  <g s:type="inputExt" transform="translate(1084,468.5)" s:width="30" s:height="20" id="cell_rval">
    <text x="15" y="-4" class="nodelabel cell_rval" s:attribute="ref">rval</text>
    <s:alias val="$_inputExt_"/>
    <path d="M0,0 L0,20 L15,20 L30,10 L15,0 Z" class="cell_rval"/>
    <g s:x="28" s:y="10" s:pid="Y"/>
  </g>
  <g s:type="outputExt" transform="translate(1163,583.5)" s:width="30" s:height="20" id="cell_wval">
    <text x="15" y="-4" class="nodelabel cell_wval" s:attribute="ref">wval</text>
    <s:alias val="$_outputExt_"/>
    <path d="M30,0 L30,20 L15,20 L0,10 L15,0 Z" class="cell_wval"/>
    <g s:x="0" s:y="10" s:pid="A"/>
  </g>
  <g s:type="outputExt" transform="translate(1163,393.5)" s:width="30" s:height="20" id="cell_addr">
    <text x="15" y="-4" class="nodelabel cell_addr" s:attribute="ref">addr</text>
    <s:alias val="$_outputExt_"/>
    <path d="M30,0 L30,20 L15,20 L0,10 L15,0 Z" class="cell_addr"/>
    <g s:x="0" s:y="10" s:pid="A"/>
  </g>
  <g s:type="outputExt" transform="translate(1163,518.5)" s:width="30" s:height="20" id="cell_write">
    <text x="15" y="-4" class="nodelabel cell_write" s:attribute="ref">write</text>
    <s:alias val="$_outputExt_"/>
    <path d="M30,0 L30,20 L15,20 L0,10 L15,0 Z" class="cell_write"/>
    <g s:x="0" s:y="10" s:pid="A"/>
  </g>
  <g s:type="inputExt" transform="translate(932,130.5)" s:width="30" s:height="20" id="cell_clock">
    <text x="15" y="-4" class="nodelabel cell_clock" s:attribute="ref">clock</text>
    <s:alias val="$_inputExt_"/>
    <path d="M0,0 L0,20 L15,20 L30,10 L15,0 Z" class="cell_clock"/>
    <g s:x="28" s:y="10" s:pid="Y"/>
  </g>
  <g s:type="inputExt" transform="translate(932,363.5)" s:width="30" s:height="20" id="cell_nreset">
    <text x="15" y="-4" class="nodelabel cell_nreset" s:attribute="ref">nreset</text>
    <s:alias val="$_inputExt_"/>
    <path d="M0,0 L0,20 L15,20 L30,10 L15,0 Z" class="cell_nreset"/>
    <g s:x="28" s:y="10" s:pid="Y"/>
  </g>
  <line x1="139" x2="429" y1="704" y2="704" class="net_165,166,167,168,169"/>
  <line x1="429" x2="429" y1="704" y2="581.5" class="net_165,166,167,168,169"/>
  <circle cx="429" cy="704" r="2" style="fill:#000" class="net_165,166,167,168,169"/>
  <line x1="429" x2="449" y1="581.5" y2="581.5" class="net_165,166,167,168,169"/>
  <line x1="139" x2="564" y1="704" y2="704" class="net_165,166,167,168,169"/>
  <line x1="139" x2="439" y1="664" y2="664" class="net_170,171,172,173,174"/>
  <line x1="439" x2="439" y1="664" y2="601.5" class="net_170,171,172,173,174"/>
  <line x1="439" x2="449" y1="601.5" y2="601.5" class="net_170,171,172,173,174"/>
  <line x1="288" x2="459" y1="621.5" y2="621.5" class="net_175"/>
  <line x1="459" x2="459" y1="621.5" y2="606.5" class="net_175"/>
  <line x1="595" x2="638" y1="664" y2="664" class="net_98,99,100,101,102,103,104,105,106,107,108,109,110,111,112,113,114,115,116,117,118,119,120,121,122,123,124,125,126,127,128,129"/>
  <line x1="638" x2="638" y1="664" y2="175" class="net_98,99,100,101,102,103,104,105,106,107,108,109,110,111,112,113,114,115,116,117,118,119,120,121,122,123,124,125,126,127,128,129"/>
  <line x1="638" x2="681.6666666666666" y1="175" y2="175" class="net_98,99,100,101,102,103,104,105,106,107,108,109,110,111,112,113,114,115,116,117,118,119,120,121,122,123,124,125,126,127,128,129"/>
  <line x1="595" x2="638" y1="664" y2="664" class="net_98,99,100,101,102,103,104,105,106,107,108,109,110,111,112,113,114,115,116,117,118,119,120,121,122,123,124,125,126,127,128,129"/>
  <line x1="638" x2="638" y1="664" y2="593.5" class="net_98,99,100,101,102,103,104,105,106,107,108,109,110,111,112,113,114,115,116,117,118,119,120,121,122,123,124,125,126,127,128,129"/>
  <circle cx="638" cy="593.5" r="2" style="fill:#000" class="net_98,99,100,101,102,103,104,105,106,107,108,109,110,111,112,113,114,115,116,117,118,119,120,121,122,123,124,125,126,127,128,129"/>
  <line x1="638" x2="1163" y1="593.5" y2="593.5" class="net_98,99,100,101,102,103,104,105,106,107,108,109,110,111,112,113,114,115,116,117,118,119,120,121,122,123,124,125,126,127,128,129"/>
  <line x1="575" x2="628" y1="43.5" y2="43.5" class="net_181,182,183,184,185,186,187,188,189,190,191,192,193,194,195,196,197,198,199,200,201,202,203,204,205,206,207,208,209,210,211,212"/>
  <line x1="628" x2="628" y1="43.5" y2="195" class="net_181,182,183,184,185,186,187,188,189,190,191,192,193,194,195,196,197,198,199,200,201,202,203,204,205,206,207,208,209,210,211,212"/>
  <circle cx="628" cy="43.5" r="2" style="fill:#000" class="net_181,182,183,184,185,186,187,188,189,190,191,192,193,194,195,196,197,198,199,200,201,202,203,204,205,206,207,208,209,210,211,212"/>
  <line x1="628" x2="681.6666666666666" y1="195" y2="195" class="net_181,182,183,184,185,186,187,188,189,190,191,192,193,194,195,196,197,198,199,200,201,202,203,204,205,206,207,208,209,210,211,212"/>
  <line x1="575" x2="875" y1="43.5" y2="43.5" class="net_181,182,183,184,185,186,187,188,189,190,191,192,193,194,195,196,197,198,199,200,201,202,203,204,205,206,207,208,209,210,211,212"/>
  <line x1="875" x2="875" y1="43.5" y2="246" class="net_181,182,183,184,185,186,187,188,189,190,191,192,193,194,195,196,197,198,199,200,201,202,203,204,205,206,207,208,209,210,211,212"/>
  <line x1="875" x2="932" y1="246" y2="246" class="net_181,182,183,184,185,186,187,188,189,190,191,192,193,194,195,196,197,198,199,200,201,202,203,204,205,206,207,208,209,210,211,212"/>
  <line x1="288" x2="369" y1="521.5" y2="521.5" class="net_213"/>
  <line x1="369" x2="369" y1="521.5" y2="215" class="net_213"/>
  <line x1="369" x2="691.6666666666666" y1="215" y2="215" class="net_213"/>
  <line x1="691.6666666666666" x2="691.6666666666666" y1="215" y2="200" class="net_213"/>
  <line x1="830" x2="1138" y1="403.5" y2="403.5" class="net_130,131,132,133,134,135,136,137,138,139,140,141,142,143,144,145,146,147,148,149,150,151,152,153,154,155,156,157,158,159,160,161"/>
  <line x1="1138" x2="1138" y1="403.5" y2="458.5" class="net_130,131,132,133,134,135,136,137,138,139,140,141,142,143,144,145,146,147,148,149,150,151,152,153,154,155,156,157,158,159,160,161"/>
  <circle cx="1138" cy="403.5" r="2" style="fill:#000" class="net_130,131,132,133,134,135,136,137,138,139,140,141,142,143,144,145,146,147,148,149,150,151,152,153,154,155,156,157,158,159,160,161"/>
  <line x1="1138" x2="1163" y1="458.5" y2="458.5" class="net_130,131,132,133,134,135,136,137,138,139,140,141,142,143,144,145,146,147,148,149,150,151,152,153,154,155,156,157,158,159,160,161"/>
  <line x1="830" x2="1163" y1="403.5" y2="403.5" class="net_130,131,132,133,134,135,136,137,138,139,140,141,142,143,144,145,146,147,148,149,150,151,152,153,154,155,156,157,158,159,160,161"/>
  <line x1="1112" x2="1163" y1="478.5" y2="478.5" class="net_66,67,68,69,70,71,72,73,74,75,76,77,78,79,80,81,82,83,84,85,86,87,88,89,90,91,92,93,94,95,96,97"/>
  <line x1="288" x2="399" y1="581.5" y2="581.5" class="net_246"/>
  <line x1="399" x2="399" y1="581.5" y2="498.5" class="net_246"/>
  <line x1="399" x2="1173" y1="498.5" y2="498.5" class="net_246"/>
  <line x1="1173" x2="1173" y1="498.5" y2="483.5" class="net_246"/>
  <line x1="595" x2="628" y1="644" y2="644" class="net_279,280,281,282,283,284,285,286,287,288,289,290,291,292,293,294,295,296,297,298,299,300,301,302,303,304,305,306,307,308,309,310"/>
  <line x1="628" x2="628" y1="644" y2="582.5" class="net_279,280,281,282,283,284,285,286,287,288,289,290,291,292,293,294,295,296,297,298,299,300,301,302,303,304,305,306,307,308,309,310"/>
  <line x1="628" x2="744" y1="582.5" y2="582.5" class="net_279,280,281,282,283,284,285,286,287,288,289,290,291,292,293,294,295,296,297,298,299,300,301,302,303,304,305,306,307,308,309,310"/>
  <line x1="744" x2="744" y1="582.5" y2="403.5" class="net_279,280,281,282,283,284,285,286,287,288,289,290,291,292,293,294,295,296,297,298,299,300,301,302,303,304,305,306,307,308,309,310"/>
  <line x1="744" x2="799" y1="403.5" y2="403.5" class="net_279,280,281,282,283,284,285,286,287,288,289,290,291,292,293,294,295,296,297,298,299,300,301,302,303,304,305,306,307,308,309,310"/>
  <line x1="701.6666666666666" x2="754" y1="185" y2="185" class="net_214,215,216,217,218,219,220,221,222,223,224,225,226,227,228,229,230,231,232,233,234,235,236,237,238,239,240,241,242,243,244,245"/>
  <line x1="754" x2="754" y1="185" y2="423.5" class="net_214,215,216,217,218,219,220,221,222,223,224,225,226,227,228,229,230,231,232,233,234,235,236,237,238,239,240,241,242,243,244,245"/>
  <line x1="754" x2="799" y1="423.5" y2="423.5" class="net_214,215,216,217,218,219,220,221,222,223,224,225,226,227,228,229,230,231,232,233,234,235,236,237,238,239,240,241,242,243,244,245"/>
  <line x1="709" x2="764" y1="97.5" y2="97.5" class="net_311,312,313,314"/>
  <line x1="764" x2="764" y1="97.5" y2="443.5" class="net_311,312,313,314"/>
  <line x1="764" x2="799" y1="443.5" y2="443.5" class="net_311,312,313,314"/>
  <line x1="139" x2="204" y1="584" y2="584" class="net_316,317,318,319,320,321"/>
  <line x1="204" x2="204" y1="584" y2="12" class="net_316,317,318,319,320,321"/>
  <line x1="204" x2="638" y1="12" y2="12" class="net_316,317,318,319,320,321"/>
  <line x1="638" x2="638" y1="12" y2="97.5" class="net_316,317,318,319,320,321"/>
  <line x1="638" x2="678" y1="97.5" y2="97.5" class="net_316,317,318,319,320,321"/>
  <line x1="288" x2="359" y1="501.5" y2="501.5" class="net_322"/>
  <line x1="359" x2="359" y1="501.5" y2="117.5" class="net_322"/>
  <line x1="359" x2="678" y1="117.5" y2="117.5" class="net_322"/>
  <line x1="139" x2="234" y1="644" y2="644" class="net_325,326,327,328,329,330"/>
  <line x1="234" x2="234" y1="644" y2="501.5" class="net_325,326,327,328,329,330"/>
  <line x1="234" x2="257" y1="501.5" y2="501.5" class="net_325,326,327,328,329,330"/>
  <line x1="40" x2="108" y1="584" y2="584" class="net_2,3,4,5,6,7,8,9,10,11,12,13,14,15,16,17,18,19,20,21,22,23,24,25,26,27,28,29,30,31,32,33"/>
  <line x1="960" x2="1016" y1="140.5" y2="140.5" class="net_163"/>
  <line x1="1016" x2="1016" y1="140.5" y2="186" class="net_163"/>
  <line x1="1016" x2="1084" y1="186" y2="186" class="net_163"/>
  <line x1="963" x2="1084" y1="206" y2="206" class="net_379,380,381,382,383,384,385,386,387,388,389,390,391,392,393,394,395,396,397,398,399,400,401,402,403,404,405,406,407,408,409,410"/>
  <line x1="960" x2="1016" y1="373.5" y2="373.5" class="net_164"/>
  <line x1="1016" x2="1016" y1="373.5" y2="226" class="net_164"/>
  <line x1="1016" x2="1084" y1="226" y2="226" class="net_164"/>
  <line x1="1183" x2="1203" y1="468.5" y2="468.5" class="net_247,248,249,250,251,252,253,254,255,256,257,258,259,260,261,262,263,264,265,266,267,268,269,270,271,272,273,274,275,276,277,278"/>
  <line x1="1203" x2="1203" y1="468.5" y2="613.5" class="net_247,248,249,250,251,252,253,254,255,256,257,258,259,260,261,262,263,264,265,266,267,268,269,270,271,272,273,274,275,276,277,278"/>
  <line x1="1203" x2="499" y1="613.5" y2="613.5" class="net_247,248,249,250,251,252,253,254,255,256,257,258,259,260,261,262,263,264,265,266,267,268,269,270,271,272,273,274,275,276,277,278"/>
  <line x1="499" x2="499" y1="613.5" y2="644" class="net_247,248,249,250,251,252,253,254,255,256,257,258,259,260,261,262,263,264,265,266,267,268,269,270,271,272,273,274,275,276,277,278"/>
  <line x1="499" x2="564" y1="644" y2="644" class="net_247,248,249,250,251,252,253,254,255,256,257,258,259,260,261,262,263,264,265,266,267,268,269,270,271,272,273,274,275,276,277,278"/>
  <line x1="469" x2="489" y1="591.5" y2="591.5" class="net_176,177,178,179,180"/>
  <line x1="489" x2="489" y1="591.5" y2="664" class="net_176,177,178,179,180"/>
  <line x1="489" x2="564" y1="664" y2="664" class="net_176,177,178,179,180"/>
  <line x1="139" x2="564" y1="684" y2="684" class="net_374,375,376,377,378"/>
  <line x1="288" x2="419" y1="641.5" y2="641.5" class="net_331"/>
  <line x1="419" x2="419" y1="641.5" y2="560.5" class="net_331"/>
  <line x1="419" x2="479" y1="560.5" y2="560.5" class="net_331"/>
  <line x1="479" x2="479" y1="560.5" y2="724" class="net_331"/>
  <line x1="479" x2="564" y1="724" y2="724" class="net_331"/>
  <line x1="139" x2="214" y1="604" y2="604" class="net_332,333,334,335,336,337,338,339,340,341,342,343,344,345,346,347"/>
  <line x1="214" x2="214" y1="604" y2="43.5" class="net_332,333,334,335,336,337,338,339,340,341,342,343,344,345,346,347"/>
  <line x1="214" x2="544" y1="43.5" y2="43.5" class="net_332,333,334,335,336,337,338,339,340,341,342,343,344,345,346,347"/>
  <line x1="139" x2="224" y1="624" y2="624" class="net_348,349,350,351,352,353,354,355,356,357,358,359,360,361,362,363,364,365,366,367,368,369,370,371,372,373"/>
  <line x1="224" x2="224" y1="624" y2="66" class="net_348,349,350,351,352,353,354,355,356,357,358,359,360,361,362,363,364,365,366,367,368,369,370,371,372,373"/>
  <line x1="224" x2="865" y1="66" y2="66" class="net_348,349,350,351,352,353,354,355,356,357,358,359,360,361,362,363,364,365,366,367,368,369,370,371,372,373"/>
  <line x1="865" x2="865" y1="66" y2="206" class="net_348,349,350,351,352,353,354,355,356,357,358,359,360,361,362,363,364,365,366,367,368,369,370,371,372,373"/>
  <line x1="865" x2="932" y1="206" y2="206" class="net_348,349,350,351,352,353,354,355,356,357,358,359,360,361,362,363,364,365,366,367,368,369,370,371,372,373"/>
  <line x1="288" x2="379" y1="541.5" y2="541.5" class="net_323"/>
  <line x1="379" x2="379" y1="541.5" y2="226" class="net_323"/>
  <line x1="379" x2="932" y1="226" y2="226" class="net_323"/>
  <line x1="288" x2="389" y1="561.5" y2="561.5" class="net_324"/>
  <line x1="389" x2="389" y1="561.5" y2="372" class="net_324"/>
  <line x1="389" x2="865" y1="372" y2="372" class="net_324"/>
  <line x1="865" x2="865" y1="372" y2="266" class="net_324"/>
  <line x1="865" x2="932" y1="266" y2="266" class="net_324"/>
  <line x1="1115" x2="1138" y1="186" y2="186" class="net_34,35,36,37,38,39,40,41,42,43,44,45,46,47,48,49,50,51,52,53,54,55,56,57,58,59,60,61,62,63,64,65"/>
  <line x1="1138" x2="1138" y1="186" y2="393.5" class="net_34,35,36,37,38,39,40,41,42,43,44,45,46,47,48,49,50,51,52,53,54,55,56,57,58,59,60,61,62,63,64,65"/>
  <line x1="1138" x2="875" y1="393.5" y2="393.5" class="net_34,35,36,37,38,39,40,41,42,43,44,45,46,47,48,49,50,51,52,53,54,55,56,57,58,59,60,61,62,63,64,65"/>
  <line x1="875" x2="875" y1="393.5" y2="286" class="net_34,35,36,37,38,39,40,41,42,43,44,45,46,47,48,49,50,51,52,53,54,55,56,57,58,59,60,61,62,63,64,65"/>
  <circle cx="1138" cy="186" r="2" style="fill:#000" class="net_34,35,36,37,38,39,40,41,42,43,44,45,46,47,48,49,50,51,52,53,54,55,56,57,58,59,60,61,62,63,64,65"/>
  <line x1="875" x2="932" y1="286" y2="286" class="net_34,35,36,37,38,39,40,41,42,43,44,45,46,47,48,49,50,51,52,53,54,55,56,57,58,59,60,61,62,63,64,65"/>
  <line x1="1115" x2="1163" y1="186" y2="186" class="net_34,35,36,37,38,39,40,41,42,43,44,45,46,47,48,49,50,51,52,53,54,55,56,57,58,59,60,61,62,63,64,65"/>
  <line x1="830" x2="885" y1="423.5" y2="423.5" class="net_315"/>
  <line x1="885" x2="885" y1="423.5" y2="306" class="net_315"/>
  <line x1="885" x2="932" y1="306" y2="306" class="net_315"/>
  <line x1="288" x2="409" y1="601.5" y2="601.5" class="net_162"/>
  <line x1="409" x2="409" y1="601.5" y2="528.5" class="net_162"/>
  <line x1="409" x2="1163" y1="528.5" y2="528.5" class="net_162"/>
</svg>
