<svg xmlns="http://www.w3.org/2000/svg" xmlns:xlink="http://www.w3.org/1999/xlink" xmlns:s="https://github.com/nturley/netlistsvg" width="229" height="444">
  <style>svg {
    stroke:#000;
    fill:none;
  }
  text {
    fill:#000;
    stroke:none;
    font-size:10px;
    font-weight: bold;
    font-family: "Courier New", monospace;
  }
  .nodelabel {
    text-anchor: middle;
  }
  .inputPortLabel {
    text-anchor: end;
  }
  .splitjoinBody {
    fill:#000;
  }</style>
  <g s:type="outputExt" transform="translate(163,22)" s:width="30" s:height="20" id="cell_sr1">
    <text x="15" y="-4" class="nodelabel cell_sr1" s:attribute="ref">sr1</text>
    <s:alias val="$_outputExt_"/>
    <path d="M30,0 L30,20 L15,20 L0,10 L15,0 Z" class="cell_sr1"/>
    <g s:x="0" s:y="10" s:pid="A"/>
  </g>
  <g s:type="outputExt" transform="translate(163,87)" s:width="30" s:height="20" id="cell_sr2">
    <text x="15" y="-4" class="nodelabel cell_sr2" s:attribute="ref">sr2</text>
    <s:alias val="$_outputExt_"/>
    <path d="M30,0 L30,20 L15,20 L0,10 L15,0 Z" class="cell_sr2"/>
    <g s:x="0" s:y="10" s:pid="A"/>
  </g>
  <g s:type="outputExt" transform="translate(163,152)" s:width="30" s:height="20" id="cell_dr">
    <text x="15" y="-4" class="nodelabel cell_dr" s:attribute="ref">dr</text>
    <s:alias val="$_outputExt_"/>
    <path d="M30,0 L30,20 L15,20 L0,10 L15,0 Z" class="cell_dr"/>
    <g s:x="0" s:y="10" s:pid="A"/>
  </g>
  <g s:type="outputExt" transform="translate(163,217)" s:width="30" s:height="20" id="cell_imm">
    <text x="15" y="-4" class="nodelabel cell_imm" s:attribute="ref">imm</text>
    <s:alias val="$_outputExt_"/>
    <path d="M30,0 L30,20 L15,20 L0,10 L15,0 Z" class="cell_imm"/>
    <g s:x="0" s:y="10" s:pid="A"/>
  </g>
  <g s:type="outputExt" transform="translate(163,282)" s:width="30" s:height="20" id="cell_jump_addr">
    <text x="15" y="-4" class="nodelabel cell_jump_addr" s:attribute="ref">jump_addr</text>
    <s:alias val="$_outputExt_"/>
    <path d="M30,0 L30,20 L15,20 L0,10 L15,0 Z" class="cell_jump_addr"/>
    <g s:x="0" s:y="10" s:pid="A"/>
  </g>
  <g s:type="outputExt" transform="translate(163,347)" s:width="30" s:height="20" id="cell_alu_func">
    <text x="15" y="-4" class="nodelabel cell_alu_func" s:attribute="ref">alu_func</text>
    <s:alias val="$_outputExt_"/>
    <path d="M30,0 L30,20 L15,20 L0,10 L15,0 Z" class="cell_alu_func"/>
    <g s:x="0" s:y="10" s:pid="A"/>
  </g>
  <g s:type="outputExt" transform="translate(163,412)" s:width="30" s:height="20" id="cell_op">
    <text x="15" y="-4" class="nodelabel cell_op" s:attribute="ref">op</text>
    <s:alias val="$_outputExt_"/>
    <path d="M30,0 L30,20 L15,20 L0,10 L15,0 Z" class="cell_op"/>
    <g s:x="0" s:y="10" s:pid="A"/>
  </g>
  <g s:type="inputExt" transform="translate(12,77)" s:width="30" s:height="20" id="cell_instr">
    <text x="15" y="-4" class="nodelabel cell_instr" s:attribute="ref">instr</text>
    <s:alias val="$_inputExt_"/>
    <path d="M0,0 L0,20 L15,20 L30,10 L15,0 Z" class="cell_instr"/>
    <g s:x="28" s:y="10" s:pid="Y"/>
  </g>
  <g s:type="split" transform="translate(77,66.5)" s:width="5" s:height="40" id="cell_$split$,17,18,19,20,21,22,23,24,25,26,27,12,13,14,15,16,7,8,9,10,11,2,3,4,5,6,28,29,30,31,32,33,">
    <rect width="5" height="140" class="splitjoinBody" s:generic="body"/>
    <s:alias val="$_split_"/>
    <g s:x="0" s:y="20" s:pid="in"/>
    <g transform="translate(4,10)" s:x="4" s:y="10" s:pid="out0">
      <text x="5" y="-4">21:25</text>
    </g>
    <g transform="translate(4,30)" s:x="4" s:y="10" s:pid="out0">
      <text x="5" y="-4">16:20</text>
    </g>
    <g transform="translate(4,50)" s:x="4" s:y="10" s:pid="out0">
      <text x="5" y="-4">11:15</text>
    </g>
    <g transform="translate(4,70)" s:x="4" s:y="10" s:pid="out0">
      <text x="5" y="-4">0:15</text>
    </g>
    <g transform="translate(4,90)" s:x="4" s:y="10" s:pid="out0">
      <text x="5" y="-4">0:25</text>
    </g>
    <g transform="translate(4,110)" s:x="4" s:y="10" s:pid="out0">
      <text x="5" y="-4">0:5</text>
    </g>
    <g transform="translate(4,130)" s:x="4" s:y="10" s:pid="out0">
      <text x="5" y="-4">26:31</text>
    </g>
  </g>
  <line x1="81.5" x2="81.5" y1="76.5" y2="32" class="net_2,3,4,5,6"/>
  <line x1="81.5" x2="163" y1="32" y2="32" class="net_2,3,4,5,6"/>
  <line x1="82" x2="163" y1="97" y2="97" class="net_7,8,9,10,11"/>
  <line x1="82" x2="153" y1="117" y2="117" class="net_12,13,14,15,16"/>
  <line x1="153" x2="153" y1="117" y2="162" class="net_12,13,14,15,16"/>
  <line x1="153" x2="163" y1="162" y2="162" class="net_12,13,14,15,16"/>
  <line x1="82" x2="143" y1="137" y2="137" class="net_17,18,19,20,21,22,23,24,25,26,27,12,13,14,15,16"/>
  <line x1="143" x2="143" y1="137" y2="227" class="net_17,18,19,20,21,22,23,24,25,26,27,12,13,14,15,16"/>
  <line x1="143" x2="163" y1="227" y2="227" class="net_17,18,19,20,21,22,23,24,25,26,27,12,13,14,15,16"/>
  <line x1="82" x2="133" y1="157" y2="157" class="net_17,18,19,20,21,22,23,24,25,26,27,12,13,14,15,16,7,8,9,10,11,2,3,4,5,6"/>
  <line x1="133" x2="133" y1="157" y2="292" class="net_17,18,19,20,21,22,23,24,25,26,27,12,13,14,15,16,7,8,9,10,11,2,3,4,5,6"/>
  <line x1="133" x2="163" y1="292" y2="292" class="net_17,18,19,20,21,22,23,24,25,26,27,12,13,14,15,16,7,8,9,10,11,2,3,4,5,6"/>
  <line x1="82" x2="123" y1="177" y2="177" class="net_17,18,19,20,21,22"/>
  <line x1="123" x2="123" y1="177" y2="357" class="net_17,18,19,20,21,22"/>
  <line x1="123" x2="163" y1="357" y2="357" class="net_17,18,19,20,21,22"/>
  <line x1="81.5" x2="81.5" y1="197.5" y2="422" class="net_28,29,30,31,32,33"/>
  <line x1="81.5" x2="163" y1="422" y2="422" class="net_28,29,30,31,32,33"/>
  <line x1="40" x2="77" y1="87" y2="87" class="net_17,18,19,20,21,22,23,24,25,26,27,12,13,14,15,16,7,8,9,10,11,2,3,4,5,6,28,29,30,31,32,33"/>
</svg>
