<svg xmlns="http://www.w3.org/2000/svg" xmlns:xlink="http://www.w3.org/1999/xlink" xmlns:s="https://github.com/nturley/netlistsvg" width="512" height="452">
  <style>svg {
    stroke:#000;
    fill:none;
  }
  text {
    fill:#000;
    stroke:none;
    font-size:10px;
    font-weight: bold;
    font-family: "Courier New", monospace;
  }
  .nodelabel {
    text-anchor: middle;
  }
  .inputPortLabel {
    text-anchor: end;
  }
  .splitjoinBody {
    fill:#000;
  }</style>
  <g s:type="add" transform="translate(270.6666666666667,122.5)" s:width="25" s:height="25" id="cell_$add$rtl/mps/PCLogic.v:10$4">
    <s:alias val="$add"/>
    <circle r="12.5" cx="12.5" cy="12.5" class="cell_$add$rtl/mps/PCLogic.v:10$4"/>
    <line x1="7.5" x2="17.5" y1="12.5" y2="12.5" class="cell_$add$rtl/mps/PCLogic.v:10$4"/>
    <line x1="12.5" x2="12.5" y1="7.5" y2="17.5" class="cell_$add$rtl/mps/PCLogic.v:10$4"/>
    <g s:x="3" s:y="5" s:pid="A"/>
    <g s:x="3" s:y="20" s:pid="B"/>
    <g s:x="25" s:y="12.5" s:pid="Y"/>
  </g>
  <g s:type="add" transform="translate(194,12)" s:width="25" s:height="25" id="cell_$add$rtl/mps/PCLogic.v:8$1">
    <s:alias val="$add"/>
    <circle r="12.5" cx="12.5" cy="12.5" class="cell_$add$rtl/mps/PCLogic.v:8$1"/>
    <line x1="7.5" x2="17.5" y1="12.5" y2="12.5" class="cell_$add$rtl/mps/PCLogic.v:8$1"/>
    <line x1="12.5" x2="12.5" y1="7.5" y2="17.5" class="cell_$add$rtl/mps/PCLogic.v:8$1"/>
    <g s:x="3" s:y="5" s:pid="A"/>
    <g s:x="3" s:y="20" s:pid="B"/>
    <g s:x="25" s:y="12.5" s:pid="Y"/>
  </g>
  <g s:type="and" transform="translate(269,212)" s:width="30" s:height="25" id="cell_$and$rtl/mps/PCLogic.v:11$5">
    <s:alias val="$and"/>
    <s:alias val="$logic_and"/>
    <s:alias val="$_AND_"/>
    <path d="M0,0 L0,25 L15,25 A15 12.5 0 0 0 15,0 Z" class="cell_$and$rtl/mps/PCLogic.v:11$5"/>
    <g s:x="0" s:y="5" s:pid="A"/>
    <g s:x="0" s:y="20" s:pid="B"/>
    <g s:x="30" s:y="12.5" s:pid="Y"/>
  </g>
  <g s:type="mux" transform="translate(347.6666666666667,14.5)" s:width="20" s:height="40" id="cell_$ternary$rtl/mps/PCLogic.v:11$6">
    <s:alias val="$pmux"/>
    <s:alias val="$mux"/>
    <s:alias val="$_MUX_"/>
    <path d="M0,0 L20,10 L20,30 L0,40 Z" class="cell_$ternary$rtl/mps/PCLogic.v:11$6"/>
    <g s:x="0" s:y="10" s:pid="A"/>
    <g s:x="0" s:y="30" s:pid="B"/>
    <g s:x="10" s:y="35" s:pid="S"/>
    <g s:x="20" s:y="20" s:pid="Y"/>
  </g>
  <g s:type="mux" transform="translate(403,24.5)" s:width="20" s:height="40" id="cell_$ternary$rtl/mps/PCLogic.v:11$7">
    <s:alias val="$pmux"/>
    <s:alias val="$mux"/>
    <s:alias val="$_MUX_"/>
    <path d="M0,0 L20,10 L20,30 L0,40 Z" class="cell_$ternary$rtl/mps/PCLogic.v:11$7"/>
    <g s:x="0" s:y="10" s:pid="A"/>
    <g s:x="0" s:y="30" s:pid="B"/>
    <g s:x="10" s:y="35" s:pid="S"/>
    <g s:x="20" s:y="20" s:pid="Y"/>
  </g>
  <g s:type="outputExt" transform="translate(458,34.5)" s:width="30" s:height="20" id="cell_pc_next">
    <text x="15" y="-4" class="nodelabel cell_pc_next" s:attribute="ref">pc_next</text>
    <s:alias val="$_outputExt_"/>
    <path d="M30,0 L30,20 L15,20 L0,10 L15,0 Z" class="cell_pc_next"/>
    <g s:x="0" s:y="10" s:pid="A"/>
  </g>
  <g s:type="inputExt" transform="translate(113,87)" s:width="30" s:height="20" id="cell_pc">
    <text x="15" y="-4" class="nodelabel cell_pc" s:attribute="ref">pc</text>
    <s:alias val="$_inputExt_"/>
    <path d="M0,0 L0,20 L15,20 L30,10 L15,0 Z" class="cell_pc"/>
    <g s:x="28" s:y="10" s:pid="Y"/>
  </g>
  <g s:type="inputExt" transform="translate(178,336)" s:width="30" s:height="20" id="cell_jump_addr">
    <text x="15" y="-4" class="nodelabel cell_jump_addr" s:attribute="ref">jump_addr</text>
    <s:alias val="$_inputExt_"/>
    <path d="M0,0 L0,20 L15,20 L30,10 L15,0 Z" class="cell_jump_addr"/>
    <g s:x="28" s:y="10" s:pid="Y"/>
  </g>
  <g s:type="inputExt" transform="translate(12,165)" s:width="30" s:height="20" id="cell_branch_addr">
    <text x="15" y="-4" class="nodelabel cell_branch_addr" s:attribute="ref">branch_addr</text>
    <s:alias val="$_inputExt_"/>
    <path d="M0,0 L0,20 L15,20 L30,10 L15,0 Z" class="cell_branch_addr"/>
    <g s:x="28" s:y="10" s:pid="Y"/>
  </g>
  <g s:type="inputExt" transform="translate(338,420)" s:width="30" s:height="20" id="cell_jump">
    <text x="15" y="-4" class="nodelabel cell_jump" s:attribute="ref">jump</text>
    <s:alias val="$_inputExt_"/>
    <path d="M0,0 L0,20 L15,20 L30,10 L15,0 Z" class="cell_jump"/>
    <g s:x="28" s:y="10" s:pid="Y"/>
  </g>
  <g s:type="inputExt" transform="translate(178,207)" s:width="30" s:height="20" id="cell_branch">
    <text x="15" y="-4" class="nodelabel cell_branch" s:attribute="ref">branch</text>
    <s:alias val="$_inputExt_"/>
    <path d="M0,0 L0,20 L15,20 L30,10 L15,0 Z" class="cell_branch"/>
    <g s:x="28" s:y="10" s:pid="Y"/>
  </g>
  <g s:type="inputExt" transform="translate(178,272)" s:width="30" s:height="20" id="cell_zero">
    <text x="15" y="-4" class="nodelabel cell_zero" s:attribute="ref">zero</text>
    <s:alias val="$_inputExt_"/>
    <path d="M0,0 L0,20 L15,20 L30,10 L15,0 Z" class="cell_zero"/>
    <g s:x="28" s:y="10" s:pid="Y"/>
  </g>
  <g s:type="constant" transform="translate(113,292)" s:width="30" s:height="20" id="cell_00">
    <text x="15" y="-4" class="nodelabel cell_00" s:attribute="ref">00</text>
    <s:alias val="$_constant_"/>
    <rect width="30" height="20" class="cell_00"/>
    <g s:x="30" s:y="10" s:pid="Y"/>
  </g>
  <g s:type="constant" transform="translate(113,22)" s:width="30" s:height="20" id="cell_100">
    <text x="15" y="-4" class="nodelabel cell_100" s:attribute="ref">100</text>
    <s:alias val="$_constant_"/>
    <rect width="30" height="20" class="cell_100"/>
    <g s:x="30" s:y="10" s:pid="Y"/>
  </g>
  <g s:type="join" transform="translate(201,122)" s:width="4" s:height="40" id="cell_$join$,224,225,92,93,94,95,96,97,98,99,100,101,102,103,104,105,106,107,108,109,110,111,112,113,114,115,116,117,118,119,120,121,">
    <rect width="5" height="40" class="splitjoinBody" s:generic="body"/>
    <s:alias val="$_join_"/>
    <g s:x="5" s:y="20" s:pid="out"/>
    <g transform="translate(0,10)" s:x="0" s:y="10" s:pid="in0">
      <text x="-3" y="-4" class="inputPortLabel">0:1</text>
    </g>
    <g transform="translate(0,30)" s:x="0" s:y="10" s:pid="in0">
      <text x="-3" y="-4" class="inputPortLabel">2:31</text>
    </g>
  </g>
  <g s:type="join" transform="translate(357,293)" s:width="4" s:height="40" id="cell_$join$,224,225,66,67,68,69,70,71,72,73,74,75,76,77,78,79,80,81,82,83,84,85,86,87,88,89,62,63,64,65,224,225,">
    <rect width="5" height="80" class="splitjoinBody" s:generic="body"/>
    <s:alias val="$_join_"/>
    <g s:x="5" s:y="20" s:pid="out"/>
    <g transform="translate(0,10)" s:x="0" s:y="10" s:pid="in0">
      <text x="-3" y="-4" class="inputPortLabel">0:1</text>
    </g>
    <g transform="translate(0,30)" s:x="0" s:y="10" s:pid="in0">
      <text x="-3" y="-4" class="inputPortLabel">2:25</text>
    </g>
    <g transform="translate(0,50)" s:x="0" s:y="10" s:pid="in0">
      <text x="-3" y="-4" class="inputPortLabel">26:29</text>
    </g>
    <g transform="translate(0,70)" s:x="0" s:y="10" s:pid="in0">
      <text x="-3" y="-4" class="inputPortLabel">30:31</text>
    </g>
  </g>
  <g s:type="split" transform="translate(113,142)" s:width="5" s:height="40" id="cell_$split$,92,93,94,95,96,97,98,99,100,101,102,103,104,105,106,107,108,109,110,111,112,113,114,115,116,117,118,119,120,121,122,123,">
    <rect width="5" height="20" class="splitjoinBody" s:generic="body"/>
    <s:alias val="$_split_"/>
    <g s:x="0" s:y="20" s:pid="in"/>
    <g transform="translate(4,10)" s:x="4" s:y="10" s:pid="out0">
      <text x="5" y="-4">0:29</text>
    </g>
  </g>
  <g s:type="split" transform="translate(267,313)" s:width="5" s:height="40" id="cell_$split$,66,67,68,69,70,71,72,73,74,75,76,77,78,79,80,81,82,83,84,85,86,87,88,89,90,91,">
    <rect width="5" height="20" class="splitjoinBody" s:generic="body"/>
    <s:alias val="$_split_"/>
    <g s:x="0" s:y="20" s:pid="in"/>
    <g transform="translate(4,10)" s:x="4" s:y="10" s:pid="out0">
      <text x="5" y="-4">0:23</text>
    </g>
  </g>
  <g s:type="split" transform="translate(267,356)" s:width="5" s:height="40" id="cell_$split$,34,35,36,37,38,39,40,41,42,43,44,45,46,47,48,49,50,51,52,53,54,55,56,57,58,59,60,61,62,63,64,65,">
    <rect width="5" height="20" class="splitjoinBody" s:generic="body"/>
    <s:alias val="$_split_"/>
    <g s:x="0" s:y="20" s:pid="in"/>
    <g transform="translate(4,10)" s:x="4" s:y="10" s:pid="out0">
      <text x="5" y="-4">28:31</text>
    </g>
  </g>
  <line x1="219" x2="242" y1="24.5" y2="24.5" class="net_127,128,129,130,131,132,133,134,135,136,137,138,139,140,141,142,143,144,145,146,147,148,149,150,151,152,153,154,155,156,157,158"/>
  <line x1="242" x2="242" y1="24.5" y2="127.5" class="net_127,128,129,130,131,132,133,134,135,136,137,138,139,140,141,142,143,144,145,146,147,148,149,150,151,152,153,154,155,156,157,158"/>
  <circle cx="242" cy="24.5" r="2" style="fill:#000" class="net_127,128,129,130,131,132,133,134,135,136,137,138,139,140,141,142,143,144,145,146,147,148,149,150,151,152,153,154,155,156,157,158"/>
  <line x1="242" x2="273.6666666666667" y1="127.5" y2="127.5" class="net_127,128,129,130,131,132,133,134,135,136,137,138,139,140,141,142,143,144,145,146,147,148,149,150,151,152,153,154,155,156,157,158"/>
  <line x1="219" x2="347.6666666666667" y1="24.5" y2="24.5" class="net_127,128,129,130,131,132,133,134,135,136,137,138,139,140,141,142,143,144,145,146,147,148,149,150,151,152,153,154,155,156,157,158"/>
  <line x1="207" x2="273.6666666666667" y1="142.5" y2="142.5" class="net_224,225,92,93,94,95,96,97,98,99,100,101,102,103,104,105,106,107,108,109,110,111,112,113,114,115,116,117,118,119,120,121"/>
  <line x1="141" x2="163" y1="97" y2="97" class="net_34,35,36,37,38,39,40,41,42,43,44,45,46,47,48,49,50,51,52,53,54,55,56,57,58,59,60,61,62,63,64,65"/>
  <line x1="163" x2="163" y1="97" y2="17" class="net_34,35,36,37,38,39,40,41,42,43,44,45,46,47,48,49,50,51,52,53,54,55,56,57,58,59,60,61,62,63,64,65"/>
  <circle cx="163" cy="97" r="2" style="fill:#000" class="net_34,35,36,37,38,39,40,41,42,43,44,45,46,47,48,49,50,51,52,53,54,55,56,57,58,59,60,61,62,63,64,65"/>
  <line x1="163" x2="197" y1="17" y2="17" class="net_34,35,36,37,38,39,40,41,42,43,44,45,46,47,48,49,50,51,52,53,54,55,56,57,58,59,60,61,62,63,64,65"/>
  <line x1="141" x2="163" y1="97" y2="97" class="net_34,35,36,37,38,39,40,41,42,43,44,45,46,47,48,49,50,51,52,53,54,55,56,57,58,59,60,61,62,63,64,65"/>
  <line x1="163" x2="163" y1="97" y2="389" class="net_34,35,36,37,38,39,40,41,42,43,44,45,46,47,48,49,50,51,52,53,54,55,56,57,58,59,60,61,62,63,64,65"/>
  <line x1="163" x2="267.5" y1="389" y2="389" class="net_34,35,36,37,38,39,40,41,42,43,44,45,46,47,48,49,50,51,52,53,54,55,56,57,58,59,60,61,62,63,64,65"/>
  <line x1="267.5" x2="267.5" y1="389" y2="377" class="net_34,35,36,37,38,39,40,41,42,43,44,45,46,47,48,49,50,51,52,53,54,55,56,57,58,59,60,61,62,63,64,65"/>
  <line x1="143" x2="197" y1="32" y2="32" class="net_226,227,228"/>
  <line x1="206" x2="269" y1="217" y2="217" class="net_125"/>
  <line x1="206" x2="242" y1="282" y2="282" class="net_126"/>
  <line x1="242" x2="242" y1="282" y2="232" class="net_126"/>
  <line x1="242" x2="269" y1="232" y2="232" class="net_126"/>
  <line x1="295.6666666666667" x2="313" y1="135" y2="135" class="net_159,160,161,162,163,164,165,166,167,168,169,170,171,172,173,174,175,176,177,178,179,180,181,182,183,184,185,186,187,188,189,190"/>
  <line x1="313" x2="313" y1="135" y2="44.5" class="net_159,160,161,162,163,164,165,166,167,168,169,170,171,172,173,174,175,176,177,178,179,180,181,182,183,184,185,186,187,188,189,190"/>
  <line x1="313" x2="347.6666666666667" y1="44.5" y2="44.5" class="net_159,160,161,162,163,164,165,166,167,168,169,170,171,172,173,174,175,176,177,178,179,180,181,182,183,184,185,186,187,188,189,190"/>
  <line x1="299" x2="357.6666666666667" y1="224.5" y2="224.5" class="net_191"/>
  <line x1="357.6666666666667" x2="357.6666666666667" y1="224.5" y2="49.5" class="net_191"/>
  <line x1="367.6666666666667" x2="403" y1="34.5" y2="34.5" class="net_192,193,194,195,196,197,198,199,200,201,202,203,204,205,206,207,208,209,210,211,212,213,214,215,216,217,218,219,220,221,222,223"/>
  <line x1="363" x2="378" y1="313.5" y2="313.5" class="net_224,225,66,67,68,69,70,71,72,73,74,75,76,77,78,79,80,81,82,83,84,85,86,87,88,89,62,63,64,65,224,225"/>
  <line x1="378" x2="378" y1="313.5" y2="54.5" class="net_224,225,66,67,68,69,70,71,72,73,74,75,76,77,78,79,80,81,82,83,84,85,86,87,88,89,62,63,64,65,224,225"/>
  <line x1="378" x2="403" y1="54.5" y2="54.5" class="net_224,225,66,67,68,69,70,71,72,73,74,75,76,77,78,79,80,81,82,83,84,85,86,87,88,89,62,63,64,65,224,225"/>
  <line x1="366" x2="413" y1="430" y2="430" class="net_124"/>
  <line x1="413" x2="413" y1="430" y2="59.5" class="net_124"/>
  <line x1="423" x2="458" y1="44.5" y2="44.5" class="net_2,3,4,5,6,7,8,9,10,11,12,13,14,15,16,17,18,19,20,21,22,23,24,25,26,27,28,29,30,31,32,33"/>
  <line x1="143" x2="153" y1="302" y2="302" class="net_224,225"/>
  <line x1="153" x2="153" y1="302" y2="132.5" class="net_224,225"/>
  <circle cx="153" cy="302" r="2" style="fill:#000" class="net_224,225"/>
  <line x1="153" x2="201" y1="132.5" y2="132.5" class="net_224,225"/>
  <line x1="143" x2="313" y1="302" y2="302" class="net_224,225"/>
  <line x1="313" x2="313" y1="302" y2="303.5" class="net_224,225"/>
  <line x1="313" x2="357" y1="303.5" y2="303.5" class="net_224,225"/>
  <line x1="143" x2="153" y1="302" y2="302" class="net_224,225"/>
  <line x1="153" x2="153" y1="302" y2="400" class="net_224,225"/>
  <line x1="153" x2="357.5" y1="400" y2="400" class="net_224,225"/>
  <line x1="357.5" x2="357.5" y1="400" y2="364" class="net_224,225"/>
  <line x1="118" x2="201" y1="152.5" y2="152.5" class="net_92,93,94,95,96,97,98,99,100,101,102,103,104,105,106,107,108,109,110,111,112,113,114,115,116,117,118,119,120,121"/>
  <line x1="272" x2="357" y1="323.5" y2="323.5" class="net_66,67,68,69,70,71,72,73,74,75,76,77,78,79,80,81,82,83,84,85,86,87,88,89"/>
  <line x1="272" x2="313" y1="366.5" y2="366.5" class="net_62,63,64,65"/>
  <line x1="313" x2="313" y1="366.5" y2="343.5" class="net_62,63,64,65"/>
  <line x1="313" x2="357" y1="343.5" y2="343.5" class="net_62,63,64,65"/>
  <line x1="40" x2="113.5" y1="175" y2="175" class="net_92,93,94,95,96,97,98,99,100,101,102,103,104,105,106,107,108,109,110,111,112,113,114,115,116,117,118,119,120,121,122,123"/>
  <line x1="113.5" x2="113.5" y1="175" y2="163" class="net_92,93,94,95,96,97,98,99,100,101,102,103,104,105,106,107,108,109,110,111,112,113,114,115,116,117,118,119,120,121,122,123"/>
  <line x1="206" x2="267.5" y1="346" y2="346" class="net_66,67,68,69,70,71,72,73,74,75,76,77,78,79,80,81,82,83,84,85,86,87,88,89,90,91"/>
  <line x1="267.5" x2="267.5" y1="346" y2="334" class="net_66,67,68,69,70,71,72,73,74,75,76,77,78,79,80,81,82,83,84,85,86,87,88,89,90,91"/>
</svg>
