<svg xmlns="http://www.w3.org/2000/svg" xmlns:xlink="http://www.w3.org/1999/xlink" xmlns:s="https://github.com/nturley/netlistsvg" width="463" height="403">
  <style>svg {
    stroke:#000;
    fill:none;
  }
  text {
    fill:#000;
    stroke:none;
    font-size:10px;
    font-weight: bold;
    font-family: "Courier New", monospace;
  }
  .nodelabel {
    text-anchor: middle;
  }
  .inputPortLabel {
    text-anchor: end;
  }
  .splitjoinBody {
    fill:#000;
  }</style>
  <g s:type="add" transform="translate(157,12)" s:width="25" s:height="25" id="cell_$add$build/mps/PCNext.v:37$1">
    <s:alias val="$add"/>
    <circle r="12.5" cx="12.5" cy="12.5" class="cell_$add$build/mps/PCNext.v:37$1"/>
    <line x1="7.5" x2="17.5" y1="12.5" y2="12.5" class="cell_$add$build/mps/PCNext.v:37$1"/>
    <line x1="12.5" x2="12.5" y1="7.5" y2="17.5" class="cell_$add$build/mps/PCNext.v:37$1"/>
    <g s:x="3" s:y="5" s:pid="A"/>
    <g s:x="3" s:y="20" s:pid="B"/>
    <g s:x="25" s:y="12.5" s:pid="Y"/>
  </g>
  <g s:type="add" transform="translate(221.66666666666666,74.5)" s:width="25" s:height="25" id="cell_$add$build/mps/PCNext.v:38$2">
    <s:alias val="$add"/>
    <circle r="12.5" cx="12.5" cy="12.5" class="cell_$add$build/mps/PCNext.v:38$2"/>
    <line x1="7.5" x2="17.5" y1="12.5" y2="12.5" class="cell_$add$build/mps/PCNext.v:38$2"/>
    <line x1="12.5" x2="12.5" y1="7.5" y2="17.5" class="cell_$add$build/mps/PCNext.v:38$2"/>
    <g s:x="3" s:y="5" s:pid="A"/>
    <g s:x="3" s:y="20" s:pid="B"/>
    <g s:x="25" s:y="12.5" s:pid="Y"/>
  </g>
  <g s:type="and" transform="translate(220,214)" s:width="30" s:height="25" id="cell_$and$build/mps/PCNext.v:39$3">
    <s:alias val="$and"/>
    <s:alias val="$logic_and"/>
    <s:alias val="$_AND_"/>
    <path d="M0,0 L0,25 L15,25 A15 12.5 0 0 0 15,0 Z" class="cell_$and$build/mps/PCNext.v:39$3"/>
    <g s:x="0" s:y="5" s:pid="A"/>
    <g s:x="0" s:y="20" s:pid="B"/>
    <g s:x="30" s:y="12.5" s:pid="Y"/>
  </g>
  <g s:type="mux" transform="translate(298.6666666666667,57)" s:width="20" s:height="40" id="cell_$ternary$build/mps/PCNext.v:40$4">
    <s:alias val="$pmux"/>
    <s:alias val="$mux"/>
    <s:alias val="$_MUX_"/>
    <path d="M0,0 L20,10 L20,30 L0,40 Z" class="cell_$ternary$build/mps/PCNext.v:40$4"/>
    <g s:x="0" s:y="10" s:pid="A"/>
    <g s:x="0" s:y="30" s:pid="B"/>
    <g s:x="10" s:y="35" s:pid="S"/>
    <g s:x="20" s:y="20" s:pid="Y"/>
  </g>
  <g s:type="mux" transform="translate(354,235.5)" s:width="20" s:height="40" id="cell_$ternary$build/mps/PCNext.v:41$5">
    <s:alias val="$pmux"/>
    <s:alias val="$mux"/>
    <s:alias val="$_MUX_"/>
    <path d="M0,0 L20,10 L20,30 L0,40 Z" class="cell_$ternary$build/mps/PCNext.v:41$5"/>
    <g s:x="0" s:y="10" s:pid="A"/>
    <g s:x="0" s:y="30" s:pid="B"/>
    <g s:x="10" s:y="35" s:pid="S"/>
    <g s:x="20" s:y="20" s:pid="Y"/>
  </g>
  <g s:type="outputExt" transform="translate(409,245.5)" s:width="30" s:height="20" id="cell_next_pc">
    <text x="15" y="-4" class="nodelabel cell_next_pc" s:attribute="ref">next_pc</text>
    <s:alias val="$_outputExt_"/>
    <path d="M30,0 L30,20 L15,20 L0,10 L15,0 Z" class="cell_next_pc"/>
    <g s:x="0" s:y="10" s:pid="A"/>
  </g>
  <g s:type="inputExt" transform="translate(77,211)" s:width="30" s:height="20" id="cell_pc">
    <text x="15" y="-4" class="nodelabel cell_pc" s:attribute="ref">pc</text>
    <s:alias val="$_inputExt_"/>
    <path d="M0,0 L0,20 L15,20 L30,10 L15,0 Z" class="cell_pc"/>
    <g s:x="28" s:y="10" s:pid="Y"/>
  </g>
  <g s:type="inputExt" transform="translate(12,181)" s:width="30" s:height="20" id="cell_imm">
    <text x="15" y="-4" class="nodelabel cell_imm" s:attribute="ref">imm</text>
    <s:alias val="$_inputExt_"/>
    <path d="M0,0 L0,20 L15,20 L30,10 L15,0 Z" class="cell_imm"/>
    <g s:x="28" s:y="10" s:pid="Y"/>
  </g>
  <g s:type="inputExt" transform="translate(147,288)" s:width="30" s:height="20" id="cell_addr">
    <text x="15" y="-4" class="nodelabel cell_addr" s:attribute="ref">addr</text>
    <s:alias val="$_inputExt_"/>
    <path d="M0,0 L0,20 L15,20 L30,10 L15,0 Z" class="cell_addr"/>
    <g s:x="28" s:y="10" s:pid="Y"/>
  </g>
  <g s:type="inputExt" transform="translate(289,371)" s:width="30" s:height="20" id="cell_jump">
    <text x="15" y="-4" class="nodelabel cell_jump" s:attribute="ref">jump</text>
    <s:alias val="$_inputExt_"/>
    <path d="M0,0 L0,20 L15,20 L30,10 L15,0 Z" class="cell_jump"/>
    <g s:x="28" s:y="10" s:pid="Y"/>
  </g>
  <g s:type="inputExt" transform="translate(147,159)" s:width="30" s:height="20" id="cell_branch">
    <text x="15" y="-4" class="nodelabel cell_branch" s:attribute="ref">branch</text>
    <s:alias val="$_inputExt_"/>
    <path d="M0,0 L0,20 L15,20 L30,10 L15,0 Z" class="cell_branch"/>
    <g s:x="28" s:y="10" s:pid="Y"/>
  </g>
  <g s:type="inputExt" transform="translate(147,224)" s:width="30" s:height="20" id="cell_zero">
    <text x="15" y="-4" class="nodelabel cell_zero" s:attribute="ref">zero</text>
    <s:alias val="$_inputExt_"/>
    <path d="M0,0 L0,20 L15,20 L30,10 L15,0 Z" class="cell_zero"/>
    <g s:x="28" s:y="10" s:pid="Y"/>
  </g>
  <g s:type="constant" transform="translate(77,276)" s:width="30" s:height="20" id="cell_100">
    <text x="15" y="-4" class="nodelabel cell_100" s:attribute="ref">100</text>
    <s:alias val="$_constant_"/>
    <rect width="30" height="20" class="cell_100"/>
    <g s:x="30" s:y="10" s:pid="Y"/>
  </g>
  <g s:type="constant" transform="translate(77,341)" s:width="30" s:height="20" id="cell_00">
    <text x="15" y="-4" class="nodelabel cell_00" s:attribute="ref">00</text>
    <s:alias val="$_constant_"/>
    <rect width="30" height="20" class="cell_00"/>
    <g s:x="30" s:y="10" s:pid="Y"/>
  </g>
  <g s:type="join" transform="translate(166,74)" s:width="4" s:height="40" id="cell_$join$,227,228,66,67,68,69,70,71,72,73,74,75,76,77,78,79,80,81,82,83,84,85,86,87,88,89,90,91,92,93,94,95,">
    <rect width="5" height="40" class="splitjoinBody" s:generic="body"/>
    <s:alias val="$_join_"/>
    <g s:x="5" s:y="20" s:pid="out"/>
    <g transform="translate(0,10)" s:x="0" s:y="10" s:pid="in0">
      <text x="-3" y="-4" class="inputPortLabel">0:1</text>
    </g>
    <g transform="translate(0,30)" s:x="0" s:y="10" s:pid="in0">
      <text x="-3" y="-4" class="inputPortLabel">2:31</text>
    </g>
  </g>
  <g s:type="join" transform="translate(308,245)" s:width="4" s:height="40" id="cell_$join$,227,228,98,99,100,101,102,103,104,105,106,107,108,109,110,111,112,113,114,115,116,117,118,119,120,121,155,156,157,158,227,228,">
    <rect width="5" height="80" class="splitjoinBody" s:generic="body"/>
    <s:alias val="$_join_"/>
    <g s:x="5" s:y="20" s:pid="out"/>
    <g transform="translate(0,10)" s:x="0" s:y="10" s:pid="in0">
      <text x="-3" y="-4" class="inputPortLabel">0:1</text>
    </g>
    <g transform="translate(0,30)" s:x="0" s:y="10" s:pid="in0">
      <text x="-3" y="-4" class="inputPortLabel">2:25</text>
    </g>
    <g transform="translate(0,50)" s:x="0" s:y="10" s:pid="in0">
      <text x="-3" y="-4" class="inputPortLabel">26:29</text>
    </g>
    <g transform="translate(0,70)" s:x="0" s:y="10" s:pid="in0">
      <text x="-3" y="-4" class="inputPortLabel">30:31</text>
    </g>
  </g>
  <g s:type="split" transform="translate(77,94)" s:width="5" s:height="40" id="cell_$split$,66,67,68,69,70,71,72,73,74,75,76,77,78,79,80,81,82,83,84,85,86,87,88,89,90,91,92,93,94,95,96,97,">
    <rect width="5" height="20" class="splitjoinBody" s:generic="body"/>
    <s:alias val="$_split_"/>
    <g s:x="0" s:y="20" s:pid="in"/>
    <g transform="translate(4,10)" s:x="4" s:y="10" s:pid="out0">
      <text x="5" y="-4">0:29</text>
    </g>
  </g>
  <g s:type="split" transform="translate(218,265)" s:width="5" s:height="40" id="cell_$split$,98,99,100,101,102,103,104,105,106,107,108,109,110,111,112,113,114,115,116,117,118,119,120,121,122,123,">
    <rect width="5" height="20" class="splitjoinBody" s:generic="body"/>
    <s:alias val="$_split_"/>
    <g s:x="0" s:y="20" s:pid="in"/>
    <g transform="translate(4,10)" s:x="4" s:y="10" s:pid="out0">
      <text x="5" y="-4">0:23</text>
    </g>
  </g>
  <g s:type="split" transform="translate(218,308)" s:width="5" s:height="40" id="cell_$split$,127,128,129,130,131,132,133,134,135,136,137,138,139,140,141,142,143,144,145,146,147,148,149,150,151,152,153,154,155,156,157,158,">
    <rect width="5" height="20" class="splitjoinBody" s:generic="body"/>
    <s:alias val="$_split_"/>
    <g s:x="0" s:y="20" s:pid="in"/>
    <g transform="translate(4,10)" s:x="4" s:y="10" s:pid="out0">
      <text x="5" y="-4">28:31</text>
    </g>
  </g>
  <line x1="105" x2="117" y1="221" y2="221" class="net_34,35,36,37,38,39,40,41,42,43,44,45,46,47,48,49,50,51,52,53,54,55,56,57,58,59,60,61,62,63,64,65"/>
  <line x1="117" x2="117" y1="221" y2="17" class="net_34,35,36,37,38,39,40,41,42,43,44,45,46,47,48,49,50,51,52,53,54,55,56,57,58,59,60,61,62,63,64,65"/>
  <line x1="117" x2="160" y1="17" y2="17" class="net_34,35,36,37,38,39,40,41,42,43,44,45,46,47,48,49,50,51,52,53,54,55,56,57,58,59,60,61,62,63,64,65"/>
  <line x1="107" x2="127" y1="286" y2="286" class="net_224,225,226"/>
  <line x1="127" x2="127" y1="286" y2="32" class="net_224,225,226"/>
  <line x1="127" x2="160" y1="32" y2="32" class="net_224,225,226"/>
  <line x1="182" x2="203" y1="24.5" y2="24.5" class="net_127,128,129,130,131,132,133,134,135,136,137,138,139,140,141,142,143,144,145,146,147,148,149,150,151,152,153,154,155,156,157,158"/>
  <line x1="203" x2="203" y1="24.5" y2="79.5" class="net_127,128,129,130,131,132,133,134,135,136,137,138,139,140,141,142,143,144,145,146,147,148,149,150,151,152,153,154,155,156,157,158"/>
  <circle cx="203" cy="24.5" r="2" style="fill:#000" class="net_127,128,129,130,131,132,133,134,135,136,137,138,139,140,141,142,143,144,145,146,147,148,149,150,151,152,153,154,155,156,157,158"/>
  <circle cx="203" cy="79.5" r="2" style="fill:#000" class="net_127,128,129,130,131,132,133,134,135,136,137,138,139,140,141,142,143,144,145,146,147,148,149,150,151,152,153,154,155,156,157,158"/>
  <line x1="203" x2="224.66666666666666" y1="79.5" y2="79.5" class="net_127,128,129,130,131,132,133,134,135,136,137,138,139,140,141,142,143,144,145,146,147,148,149,150,151,152,153,154,155,156,157,158"/>
  <line x1="182" x2="264" y1="24.5" y2="24.5" class="net_127,128,129,130,131,132,133,134,135,136,137,138,139,140,141,142,143,144,145,146,147,148,149,150,151,152,153,154,155,156,157,158"/>
  <line x1="264" x2="264" y1="24.5" y2="67" class="net_127,128,129,130,131,132,133,134,135,136,137,138,139,140,141,142,143,144,145,146,147,148,149,150,151,152,153,154,155,156,157,158"/>
  <line x1="264" x2="298.6666666666667" y1="67" y2="67" class="net_127,128,129,130,131,132,133,134,135,136,137,138,139,140,141,142,143,144,145,146,147,148,149,150,151,152,153,154,155,156,157,158"/>
  <line x1="182" x2="203" y1="24.5" y2="24.5" class="net_127,128,129,130,131,132,133,134,135,136,137,138,139,140,141,142,143,144,145,146,147,148,149,150,151,152,153,154,155,156,157,158"/>
  <line x1="203" x2="203" y1="24.5" y2="341" class="net_127,128,129,130,131,132,133,134,135,136,137,138,139,140,141,142,143,144,145,146,147,148,149,150,151,152,153,154,155,156,157,158"/>
  <line x1="203" x2="218.5" y1="341" y2="341" class="net_127,128,129,130,131,132,133,134,135,136,137,138,139,140,141,142,143,144,145,146,147,148,149,150,151,152,153,154,155,156,157,158"/>
  <line x1="218.5" x2="218.5" y1="341" y2="329" class="net_127,128,129,130,131,132,133,134,135,136,137,138,139,140,141,142,143,144,145,146,147,148,149,150,151,152,153,154,155,156,157,158"/>
  <line x1="172" x2="224.66666666666666" y1="94.5" y2="94.5" class="net_227,228,66,67,68,69,70,71,72,73,74,75,76,77,78,79,80,81,82,83,84,85,86,87,88,89,90,91,92,93,94,95"/>
  <line x1="175" x2="193" y1="169" y2="169" class="net_125"/>
  <line x1="193" x2="193" y1="169" y2="219" class="net_125"/>
  <line x1="193" x2="220" y1="219" y2="219" class="net_125"/>
  <line x1="175" x2="220" y1="234" y2="234" class="net_126"/>
  <line x1="246.66666666666666" x2="298.6666666666667" y1="87" y2="87" class="net_159,160,161,162,163,164,165,166,167,168,169,170,171,172,173,174,175,176,177,178,179,180,181,182,183,184,185,186,187,188,189,190"/>
  <line x1="250" x2="308.6666666666667" y1="226.5" y2="226.5" class="net_191"/>
  <line x1="308.6666666666667" x2="308.6666666666667" y1="226.5" y2="92" class="net_191"/>
  <line x1="318.6666666666667" x2="329" y1="77" y2="77" class="net_192,193,194,195,196,197,198,199,200,201,202,203,204,205,206,207,208,209,210,211,212,213,214,215,216,217,218,219,220,221,222,223"/>
  <line x1="329" x2="329" y1="77" y2="245.5" class="net_192,193,194,195,196,197,198,199,200,201,202,203,204,205,206,207,208,209,210,211,212,213,214,215,216,217,218,219,220,221,222,223"/>
  <line x1="329" x2="354" y1="245.5" y2="245.5" class="net_192,193,194,195,196,197,198,199,200,201,202,203,204,205,206,207,208,209,210,211,212,213,214,215,216,217,218,219,220,221,222,223"/>
  <line x1="314" x2="354" y1="265.5" y2="265.5" class="net_227,228,98,99,100,101,102,103,104,105,106,107,108,109,110,111,112,113,114,115,116,117,118,119,120,121,155,156,157,158,227,228"/>
  <line x1="317" x2="364" y1="381" y2="381" class="net_124"/>
  <line x1="364" x2="364" y1="381" y2="270.5" class="net_124"/>
  <line x1="374" x2="409" y1="255.5" y2="255.5" class="net_2,3,4,5,6,7,8,9,10,11,12,13,14,15,16,17,18,19,20,21,22,23,24,25,26,27,28,29,30,31,32,33"/>
  <line x1="107" x2="137" y1="351" y2="351" class="net_227,228"/>
  <line x1="137" x2="137" y1="351" y2="84.5" class="net_227,228"/>
  <circle cx="137" cy="351" r="2" style="fill:#000" class="net_227,228"/>
  <line x1="137" x2="166" y1="84.5" y2="84.5" class="net_227,228"/>
  <line x1="107" x2="137" y1="351" y2="351" class="net_227,228"/>
  <line x1="137" x2="137" y1="351" y2="254" class="net_227,228"/>
  <line x1="137" x2="264" y1="254" y2="254" class="net_227,228"/>
  <line x1="264" x2="264" y1="254" y2="255.5" class="net_227,228"/>
  <circle cx="137" cy="254" r="2" style="fill:#000" class="net_227,228"/>
  <line x1="264" x2="308" y1="255.5" y2="255.5" class="net_227,228"/>
  <line x1="107" x2="308.5" y1="351" y2="351" class="net_227,228"/>
  <line x1="308.5" x2="308.5" y1="351" y2="316" class="net_227,228"/>
  <line x1="82" x2="166" y1="104.5" y2="104.5" class="net_66,67,68,69,70,71,72,73,74,75,76,77,78,79,80,81,82,83,84,85,86,87,88,89,90,91,92,93,94,95"/>
  <line x1="223" x2="308" y1="275.5" y2="275.5" class="net_98,99,100,101,102,103,104,105,106,107,108,109,110,111,112,113,114,115,116,117,118,119,120,121"/>
  <line x1="223" x2="264" y1="318.5" y2="318.5" class="net_155,156,157,158"/>
  <line x1="264" x2="264" y1="318.5" y2="295.5" class="net_155,156,157,158"/>
  <line x1="264" x2="308" y1="295.5" y2="295.5" class="net_155,156,157,158"/>
  <line x1="40" x2="77.5" y1="191" y2="191" class="net_66,67,68,69,70,71,72,73,74,75,76,77,78,79,80,81,82,83,84,85,86,87,88,89,90,91,92,93,94,95,96,97"/>
  <line x1="77.5" x2="77.5" y1="191" y2="115" class="net_66,67,68,69,70,71,72,73,74,75,76,77,78,79,80,81,82,83,84,85,86,87,88,89,90,91,92,93,94,95,96,97"/>
  <line x1="175" x2="218.5" y1="298" y2="298" class="net_98,99,100,101,102,103,104,105,106,107,108,109,110,111,112,113,114,115,116,117,118,119,120,121,122,123"/>
  <line x1="218.5" x2="218.5" y1="298" y2="286" class="net_98,99,100,101,102,103,104,105,106,107,108,109,110,111,112,113,114,115,116,117,118,119,120,121,122,123"/>
</svg>
