<svg xmlns="http://www.w3.org/2000/svg" xmlns:xlink="http://www.w3.org/1999/xlink" xmlns:s="https://github.com/nturley/netlistsvg" width="251" height="184">
  <style>svg {
    stroke:#000;
    fill:none;
  }
  text {
    fill:#000;
    stroke:none;
    font-size:10px;
    font-weight: bold;
    font-family: "Courier New", monospace;
  }
  .nodelabel {
    text-anchor: middle;
  }
  .inputPortLabel {
    text-anchor: end;
  }
  .splitjoinBody {
    fill:#000;
  }</style>
  <g s:type="generic" transform="translate(114,66.5)" s:width="30" s:height="40" id="cell_$procdff$3">
    <text x="15" y="-4" class="nodelabel cell_$procdff$3" s:attribute="ref">$adff</text>
    <rect width="30" height="60" s:generic="body" class="cell_$procdff$3"/>
    <g transform="translate(0,10)" s:x="0" s:y="10" s:pid="in0" id="port_$procdff$3~ARST">
      <text x="-3" y="-4" class="inputPortLabel cell_$procdff$3">ARST</text>
    </g>
    <g transform="translate(0,30)" s:x="0" s:y="10" s:pid="in0" id="port_$procdff$3~CLK">
      <text x="-3" y="-4" class="inputPortLabel cell_$procdff$3">CLK</text>
    </g>
    <g transform="translate(0,50)" s:x="0" s:y="10" s:pid="in0" id="port_$procdff$3~D">
      <text x="-3" y="-4" class="inputPortLabel cell_$procdff$3">D</text>
    </g>
    <g transform="translate(30,10)" s:x="30" s:y="10" s:pid="out0" id="port_$procdff$3~Q">
      <text x="5" y="-4" style="fill:#000; stroke:none" class="cell_$procdff$3">Q</text>
    </g>
  </g>
  <g s:type="outputExt" transform="translate(209,67)" s:width="30" s:height="20" id="cell_pc">
    <text x="15" y="-4" class="nodelabel cell_pc" s:attribute="ref">pc</text>
    <s:alias val="$_outputExt_"/>
    <path d="M30,0 L30,20 L15,20 L0,10 L15,0 Z" class="cell_pc"/>
    <g s:x="0" s:y="10" s:pid="A"/>
  </g>
  <g s:type="inputExt" transform="translate(12,152)" s:width="30" s:height="20" id="cell_next_pc">
    <text x="15" y="-4" class="nodelabel cell_next_pc" s:attribute="ref">next_pc</text>
    <s:alias val="$_inputExt_"/>
    <path d="M0,0 L0,20 L15,20 L30,10 L15,0 Z" class="cell_next_pc"/>
    <g s:x="28" s:y="10" s:pid="Y"/>
  </g>
  <g s:type="inputExt" transform="translate(12,87)" s:width="30" s:height="20" id="cell_clock">
    <text x="15" y="-4" class="nodelabel cell_clock" s:attribute="ref">clock</text>
    <s:alias val="$_inputExt_"/>
    <path d="M0,0 L0,20 L15,20 L30,10 L15,0 Z" class="cell_clock"/>
    <g s:x="28" s:y="10" s:pid="Y"/>
  </g>
  <g s:type="inputExt" transform="translate(12,22)" s:width="30" s:height="20" id="cell_nreset">
    <text x="15" y="-4" class="nodelabel cell_nreset" s:attribute="ref">nreset</text>
    <s:alias val="$_inputExt_"/>
    <path d="M0,0 L0,20 L15,20 L30,10 L15,0 Z" class="cell_nreset"/>
    <g s:x="28" s:y="10" s:pid="Y"/>
  </g>
  <line x1="40" x2="64" y1="32" y2="32" class="net_67"/>
  <line x1="64" x2="64" y1="32" y2="77" class="net_67"/>
  <line x1="64" x2="114" y1="77" y2="77" class="net_67"/>
  <line x1="40" x2="114" y1="97" y2="97" class="net_66"/>
  <line x1="40" x2="64" y1="162" y2="162" class="net_34,35,36,37,38,39,40,41,42,43,44,45,46,47,48,49,50,51,52,53,54,55,56,57,58,59,60,61,62,63,64,65"/>
  <line x1="64" x2="64" y1="162" y2="117" class="net_34,35,36,37,38,39,40,41,42,43,44,45,46,47,48,49,50,51,52,53,54,55,56,57,58,59,60,61,62,63,64,65"/>
  <line x1="64" x2="114" y1="117" y2="117" class="net_34,35,36,37,38,39,40,41,42,43,44,45,46,47,48,49,50,51,52,53,54,55,56,57,58,59,60,61,62,63,64,65"/>
  <line x1="145" x2="209" y1="77" y2="77" class="net_2,3,4,5,6,7,8,9,10,11,12,13,14,15,16,17,18,19,20,21,22,23,24,25,26,27,28,29,30,31,32,33"/>
</svg>
