<svg xmlns="http://www.w3.org/2000/svg" xmlns:xlink="http://www.w3.org/1999/xlink" xmlns:s="https://github.com/nturley/netlistsvg" width="250" height="406">
  <style>svg {
    stroke:#000;
    fill:none;
  }
  text {
    fill:#000;
    stroke:none;
    font-size:10px;
    font-weight: bold;
    font-family: "Courier New", monospace;
  }
  .nodelabel {
    text-anchor: middle;
  }
  .inputPortLabel {
    text-anchor: end;
  }
  .splitjoinBody {
    fill:#000;
  }</style>
  <g s:type="outputExt" transform="translate(196,44.5)" s:width="30" s:height="20" id="cell_imm_ext">
    <text x="15" y="-4" class="nodelabel cell_imm_ext" s:attribute="ref">imm_ext</text>
    <s:alias val="$_outputExt_"/>
    <path d="M30,0 L30,20 L15,20 L0,10 L15,0 Z" class="cell_imm_ext"/>
    <g s:x="0" s:y="10" s:pid="A"/>
  </g>
  <g s:type="inputExt" transform="translate(12,337)" s:width="30" s:height="20" id="cell_imm">
    <text x="15" y="-4" class="nodelabel cell_imm" s:attribute="ref">imm</text>
    <s:alias val="$_inputExt_"/>
    <path d="M0,0 L0,20 L15,20 L30,10 L15,0 Z" class="cell_imm"/>
    <g s:x="28" s:y="10" s:pid="Y"/>
  </g>
  <g s:type="join" transform="translate(155,34)" s:width="4" s:height="40" id="cell_$join$,2,3,4,5,6,7,8,9,10,11,12,13,14,15,16,17,17,17,17,17,17,17,17,17,17,17,17,17,17,17,17,17,">
    <rect width="5" height="340" class="splitjoinBody" s:generic="body"/>
    <s:alias val="$_join_"/>
    <g s:x="5" s:y="20" s:pid="out"/>
    <g transform="translate(0,10)" s:x="0" s:y="10" s:pid="in0">
      <text x="-3" y="-4" class="inputPortLabel">0:15</text>
    </g>
    <g transform="translate(0,30)" s:x="0" s:y="10" s:pid="in0">
      <text x="-3" y="-4" class="inputPortLabel">16</text>
    </g>
    <g transform="translate(0,50)" s:x="0" s:y="10" s:pid="in0">
      <text x="-3" y="-4" class="inputPortLabel">17</text>
    </g>
    <g transform="translate(0,70)" s:x="0" s:y="10" s:pid="in0">
      <text x="-3" y="-4" class="inputPortLabel">18</text>
    </g>
    <g transform="translate(0,90)" s:x="0" s:y="10" s:pid="in0">
      <text x="-3" y="-4" class="inputPortLabel">19</text>
    </g>
    <g transform="translate(0,110)" s:x="0" s:y="10" s:pid="in0">
      <text x="-3" y="-4" class="inputPortLabel">20</text>
    </g>
    <g transform="translate(0,130)" s:x="0" s:y="10" s:pid="in0">
      <text x="-3" y="-4" class="inputPortLabel">21</text>
    </g>
    <g transform="translate(0,150)" s:x="0" s:y="10" s:pid="in0">
      <text x="-3" y="-4" class="inputPortLabel">22</text>
    </g>
    <g transform="translate(0,170)" s:x="0" s:y="10" s:pid="in0">
      <text x="-3" y="-4" class="inputPortLabel">23</text>
    </g>
    <g transform="translate(0,190)" s:x="0" s:y="10" s:pid="in0">
      <text x="-3" y="-4" class="inputPortLabel">24</text>
    </g>
    <g transform="translate(0,210)" s:x="0" s:y="10" s:pid="in0">
      <text x="-3" y="-4" class="inputPortLabel">25</text>
    </g>
    <g transform="translate(0,230)" s:x="0" s:y="10" s:pid="in0">
      <text x="-3" y="-4" class="inputPortLabel">26</text>
    </g>
    <g transform="translate(0,250)" s:x="0" s:y="10" s:pid="in0">
      <text x="-3" y="-4" class="inputPortLabel">27</text>
    </g>
    <g transform="translate(0,270)" s:x="0" s:y="10" s:pid="in0">
      <text x="-3" y="-4" class="inputPortLabel">28</text>
    </g>
    <g transform="translate(0,290)" s:x="0" s:y="10" s:pid="in0">
      <text x="-3" y="-4" class="inputPortLabel">29</text>
    </g>
    <g transform="translate(0,310)" s:x="0" s:y="10" s:pid="in0">
      <text x="-3" y="-4" class="inputPortLabel">30</text>
    </g>
    <g transform="translate(0,330)" s:x="0" s:y="10" s:pid="in0">
      <text x="-3" y="-4" class="inputPortLabel">31</text>
    </g>
  </g>
  <g s:type="split" transform="translate(77,314)" s:width="5" s:height="40" id="cell_$split$,2,3,4,5,6,7,8,9,10,11,12,13,14,15,16,17,">
    <rect width="5" height="20" class="splitjoinBody" s:generic="body"/>
    <s:alias val="$_split_"/>
    <g s:x="0" s:y="20" s:pid="in"/>
    <g transform="translate(4,10)" s:x="4" s:y="10" s:pid="out0">
      <text x="5" y="-4">15</text>
    </g>
  </g>
  <line x1="161" x2="196" y1="54.5" y2="54.5" class="net_2,3,4,5,6,7,8,9,10,11,12,13,14,15,16,17,17,17,17,17,17,17,17,17,17,17,17,17,17,17,17,17"/>
  <line x1="40" x2="52" y1="347" y2="347" class="net_2,3,4,5,6,7,8,9,10,11,12,13,14,15,16,17"/>
  <line x1="52" x2="52" y1="347" y2="357" class="net_2,3,4,5,6,7,8,9,10,11,12,13,14,15,16,17"/>
  <line x1="52" x2="105" y1="357" y2="357" class="net_2,3,4,5,6,7,8,9,10,11,12,13,14,15,16,17"/>
  <line x1="105" x2="105" y1="357" y2="22" class="net_2,3,4,5,6,7,8,9,10,11,12,13,14,15,16,17"/>
  <line x1="105" x2="155.5" y1="22" y2="22" class="net_2,3,4,5,6,7,8,9,10,11,12,13,14,15,16,17"/>
  <circle cx="52" cy="347" r="2" style="fill:#000" class="net_2,3,4,5,6,7,8,9,10,11,12,13,14,15,16,17"/>
  <line x1="155.5" x2="155.5" y1="22" y2="44" class="net_2,3,4,5,6,7,8,9,10,11,12,13,14,15,16,17"/>
  <line x1="40" x2="77.5" y1="347" y2="347" class="net_2,3,4,5,6,7,8,9,10,11,12,13,14,15,16,17"/>
  <line x1="77.5" x2="77.5" y1="347" y2="335" class="net_2,3,4,5,6,7,8,9,10,11,12,13,14,15,16,17"/>
  <line x1="82" x2="115" y1="324.5" y2="324.5" class="net_17"/>
  <line x1="115" x2="115" y1="324.5" y2="12" class="net_17"/>
  <line x1="115" x2="155.5" y1="12" y2="12" class="net_17"/>
  <circle cx="115" cy="324.5" r="2" style="fill:#000" class="net_17"/>
  <line x1="155.5" x2="155.5" y1="12" y2="64" class="net_17"/>
  <line x1="82" x2="115" y1="324.5" y2="324.5" class="net_17"/>
  <line x1="115" x2="115" y1="324.5" y2="84.5" class="net_17"/>
  <circle cx="115" cy="84.5" r="2" style="fill:#000" class="net_17"/>
  <line x1="115" x2="155" y1="84.5" y2="84.5" class="net_17"/>
  <line x1="82" x2="115" y1="324.5" y2="324.5" class="net_17"/>
  <line x1="115" x2="115" y1="324.5" y2="104.5" class="net_17"/>
  <circle cx="115" cy="104.5" r="2" style="fill:#000" class="net_17"/>
  <line x1="115" x2="155" y1="104.5" y2="104.5" class="net_17"/>
  <line x1="82" x2="115" y1="324.5" y2="324.5" class="net_17"/>
  <line x1="115" x2="115" y1="324.5" y2="124.5" class="net_17"/>
  <circle cx="115" cy="124.5" r="2" style="fill:#000" class="net_17"/>
  <line x1="115" x2="155" y1="124.5" y2="124.5" class="net_17"/>
  <line x1="82" x2="115" y1="324.5" y2="324.5" class="net_17"/>
  <line x1="115" x2="115" y1="324.5" y2="144.5" class="net_17"/>
  <circle cx="115" cy="144.5" r="2" style="fill:#000" class="net_17"/>
  <line x1="115" x2="155" y1="144.5" y2="144.5" class="net_17"/>
  <line x1="82" x2="115" y1="324.5" y2="324.5" class="net_17"/>
  <line x1="115" x2="115" y1="324.5" y2="164.5" class="net_17"/>
  <circle cx="115" cy="164.5" r="2" style="fill:#000" class="net_17"/>
  <line x1="115" x2="155" y1="164.5" y2="164.5" class="net_17"/>
  <line x1="82" x2="115" y1="324.5" y2="324.5" class="net_17"/>
  <line x1="115" x2="115" y1="324.5" y2="184.5" class="net_17"/>
  <circle cx="115" cy="184.5" r="2" style="fill:#000" class="net_17"/>
  <line x1="115" x2="155" y1="184.5" y2="184.5" class="net_17"/>
  <line x1="82" x2="115" y1="324.5" y2="324.5" class="net_17"/>
  <line x1="115" x2="115" y1="324.5" y2="204.5" class="net_17"/>
  <circle cx="115" cy="204.5" r="2" style="fill:#000" class="net_17"/>
  <line x1="115" x2="155" y1="204.5" y2="204.5" class="net_17"/>
  <line x1="82" x2="115" y1="324.5" y2="324.5" class="net_17"/>
  <line x1="115" x2="115" y1="324.5" y2="224.5" class="net_17"/>
  <circle cx="115" cy="224.5" r="2" style="fill:#000" class="net_17"/>
  <line x1="115" x2="155" y1="224.5" y2="224.5" class="net_17"/>
  <line x1="82" x2="115" y1="324.5" y2="324.5" class="net_17"/>
  <line x1="115" x2="115" y1="324.5" y2="244.5" class="net_17"/>
  <circle cx="115" cy="244.5" r="2" style="fill:#000" class="net_17"/>
  <line x1="115" x2="155" y1="244.5" y2="244.5" class="net_17"/>
  <line x1="82" x2="115" y1="324.5" y2="324.5" class="net_17"/>
  <line x1="115" x2="115" y1="324.5" y2="264.5" class="net_17"/>
  <circle cx="115" cy="264.5" r="2" style="fill:#000" class="net_17"/>
  <line x1="115" x2="155" y1="264.5" y2="264.5" class="net_17"/>
  <line x1="82" x2="115" y1="324.5" y2="324.5" class="net_17"/>
  <line x1="115" x2="115" y1="324.5" y2="284.5" class="net_17"/>
  <circle cx="115" cy="284.5" r="2" style="fill:#000" class="net_17"/>
  <line x1="115" x2="155" y1="284.5" y2="284.5" class="net_17"/>
  <line x1="82" x2="115" y1="324.5" y2="324.5" class="net_17"/>
  <line x1="115" x2="115" y1="324.5" y2="304.5" class="net_17"/>
  <circle cx="115" cy="304.5" r="2" style="fill:#000" class="net_17"/>
  <line x1="115" x2="155" y1="304.5" y2="304.5" class="net_17"/>
  <line x1="82" x2="155" y1="324.5" y2="324.5" class="net_17"/>
  <line x1="82" x2="115" y1="324.5" y2="324.5" class="net_17"/>
  <line x1="115" x2="115" y1="324.5" y2="394" class="net_17"/>
  <line x1="115" x2="155.5" y1="394" y2="394" class="net_17"/>
  <line x1="155.5" x2="155.5" y1="394" y2="345" class="net_17"/>
  <line x1="82" x2="115" y1="324.5" y2="324.5" class="net_17"/>
  <line x1="115" x2="115" y1="324.5" y2="384" class="net_17"/>
  <line x1="115" x2="155.5" y1="384" y2="384" class="net_17"/>
  <circle cx="115" cy="384" r="2" style="fill:#000" class="net_17"/>
  <line x1="155.5" x2="155.5" y1="384" y2="365" class="net_17"/>
</svg>
