<svg xmlns="http://www.w3.org/2000/svg" xmlns:xlink="http://www.w3.org/1999/xlink" xmlns:s="https://github.com/nturley/netlistsvg" width="335" height="185">
  <style>svg {
    stroke:#000;
    fill:none;
  }
  text {
    fill:#000;
    stroke:none;
    font-size:10px;
    font-weight: bold;
    font-family: "Courier New", monospace;
  }
  .nodelabel {
    text-anchor: middle;
  }
  .inputPortLabel {
    text-anchor: end;
  }
  .splitjoinBody {
    fill:#000;
  }</style>
  <g s:type="generic" transform="translate(125,70)" s:width="30" s:height="40" id="cell_cpu">
    <text x="15" y="-4" class="nodelabel cell_cpu" s:attribute="ref">CPU</text>
    <rect width="30" height="80" s:generic="body" class="cell_cpu"/>
    <g transform="translate(0,10)" s:x="0" s:y="10" s:pid="in0" id="port_cpu~clock">
      <text x="-3" y="-4" class="inputPortLabel cell_cpu">clock</text>
    </g>
    <g transform="translate(0,30)" s:x="0" s:y="10" s:pid="in0" id="port_cpu~instr">
      <text x="-3" y="-4" class="inputPortLabel cell_cpu">instr</text>
    </g>
    <g transform="translate(0,50)" s:x="0" s:y="10" s:pid="in0" id="port_cpu~nreset">
      <text x="-3" y="-4" class="inputPortLabel cell_cpu">nreset</text>
    </g>
    <g transform="translate(0,70)" s:x="0" s:y="10" s:pid="in0" id="port_cpu~rval">
      <text x="-3" y="-4" class="inputPortLabel cell_cpu">rval</text>
    </g>
    <g transform="translate(30,10)" s:x="30" s:y="10" s:pid="out0" id="port_cpu~addr">
      <text x="5" y="-4" style="fill:#000; stroke:none" class="cell_cpu">addr</text>
    </g>
    <g transform="translate(30,30)" s:x="30" s:y="10" s:pid="out0" id="port_cpu~pc">
      <text x="5" y="-4" style="fill:#000; stroke:none" class="cell_cpu">pc</text>
    </g>
    <g transform="translate(30,50)" s:x="30" s:y="10" s:pid="out0" id="port_cpu~write">
      <text x="5" y="-4" style="fill:#000; stroke:none" class="cell_cpu">write</text>
    </g>
    <g transform="translate(30,70)" s:x="30" s:y="10" s:pid="out0" id="port_cpu~wval">
      <text x="5" y="-4" style="fill:#000; stroke:none" class="cell_cpu">wval</text>
    </g>
  </g>
  <g s:type="generic" transform="translate(247,90)" s:width="30" s:height="40" id="cell_data_mem">
    <text x="15" y="-4" class="nodelabel cell_data_mem" s:attribute="ref">RAM</text>
    <rect width="30" height="60" s:generic="body" class="cell_data_mem"/>
    <g transform="translate(0,10)" s:x="0" s:y="10" s:pid="in0" id="port_data_mem~addr">
      <text x="-3" y="-4" class="inputPortLabel cell_data_mem">addr</text>
    </g>
    <g transform="translate(0,30)" s:x="0" s:y="10" s:pid="in0" id="port_data_mem~we">
      <text x="-3" y="-4" class="inputPortLabel cell_data_mem">we</text>
    </g>
    <g transform="translate(0,50)" s:x="0" s:y="10" s:pid="in0" id="port_data_mem~wval">
      <text x="-3" y="-4" class="inputPortLabel cell_data_mem">wval</text>
    </g>
    <g transform="translate(30,10)" s:x="30" s:y="10" s:pid="out0" id="port_data_mem~rval">
      <text x="5" y="-4" style="fill:#000; stroke:none" class="cell_data_mem">rval</text>
    </g>
  </g>
  <g s:type="generic" transform="translate(247,22)" s:width="30" s:height="40" id="cell_instr_mem">
    <text x="15" y="-4" class="nodelabel cell_instr_mem" s:attribute="ref">ROM</text>
    <rect width="30" height="20" s:generic="body" class="cell_instr_mem"/>
    <g transform="translate(0,10)" s:x="0" s:y="10" s:pid="in0" id="port_instr_mem~addr">
      <text x="-3" y="-4" class="inputPortLabel cell_instr_mem">addr</text>
    </g>
    <g transform="translate(30,10)" s:x="30" s:y="10" s:pid="out0" id="port_instr_mem~val">
      <text x="5" y="-4" style="fill:#000; stroke:none" class="cell_instr_mem">val</text>
    </g>
  </g>
  <g s:type="inputExt" transform="translate(12,70.5)" s:width="30" s:height="20" id="cell_clock">
    <text x="15" y="-4" class="nodelabel cell_clock" s:attribute="ref">clock</text>
    <s:alias val="$_inputExt_"/>
    <path d="M0,0 L0,20 L15,20 L30,10 L15,0 Z" class="cell_clock"/>
    <g s:x="28" s:y="10" s:pid="Y"/>
  </g>
  <g s:type="inputExt" transform="translate(12,135.5)" s:width="30" s:height="20" id="cell_nreset">
    <text x="15" y="-4" class="nodelabel cell_nreset" s:attribute="ref">nreset</text>
    <s:alias val="$_inputExt_"/>
    <path d="M0,0 L0,20 L15,20 L30,10 L15,0 Z" class="cell_nreset"/>
    <g s:x="28" s:y="10" s:pid="Y"/>
  </g>
  <line x1="40" x2="125" y1="80.5" y2="80.5" class="net_163"/>
  <line x1="278" x2="323" y1="32.5" y2="32.5" class="net_2,3,4,5,6,7,8,9,10,11,12,13,14,15,16,17,18,19,20,21,22,23,24,25,26,27,28,29,30,31,32,33"/>
  <line x1="323" x2="323" y1="32.5" y2="173" class="net_2,3,4,5,6,7,8,9,10,11,12,13,14,15,16,17,18,19,20,21,22,23,24,25,26,27,28,29,30,31,32,33"/>
  <line x1="323" x2="68" y1="173" y2="173" class="net_2,3,4,5,6,7,8,9,10,11,12,13,14,15,16,17,18,19,20,21,22,23,24,25,26,27,28,29,30,31,32,33"/>
  <line x1="68" x2="68" y1="173" y2="100.5" class="net_2,3,4,5,6,7,8,9,10,11,12,13,14,15,16,17,18,19,20,21,22,23,24,25,26,27,28,29,30,31,32,33"/>
  <line x1="68" x2="125" y1="100.5" y2="100.5" class="net_2,3,4,5,6,7,8,9,10,11,12,13,14,15,16,17,18,19,20,21,22,23,24,25,26,27,28,29,30,31,32,33"/>
  <line x1="40" x2="58" y1="145.5" y2="145.5" class="net_164"/>
  <line x1="58" x2="58" y1="145.5" y2="120.5" class="net_164"/>
  <line x1="58" x2="125" y1="120.5" y2="120.5" class="net_164"/>
  <line x1="278" x2="313" y1="100.5" y2="100.5" class="net_66,67,68,69,70,71,72,73,74,75,76,77,78,79,80,81,82,83,84,85,86,87,88,89,90,91,92,93,94,95,96,97"/>
  <line x1="313" x2="313" y1="100.5" y2="163" class="net_66,67,68,69,70,71,72,73,74,75,76,77,78,79,80,81,82,83,84,85,86,87,88,89,90,91,92,93,94,95,96,97"/>
  <line x1="313" x2="78" y1="163" y2="163" class="net_66,67,68,69,70,71,72,73,74,75,76,77,78,79,80,81,82,83,84,85,86,87,88,89,90,91,92,93,94,95,96,97"/>
  <line x1="78" x2="78" y1="163" y2="140.5" class="net_66,67,68,69,70,71,72,73,74,75,76,77,78,79,80,81,82,83,84,85,86,87,88,89,90,91,92,93,94,95,96,97"/>
  <line x1="78" x2="125" y1="140.5" y2="140.5" class="net_66,67,68,69,70,71,72,73,74,75,76,77,78,79,80,81,82,83,84,85,86,87,88,89,90,91,92,93,94,95,96,97"/>
  <line x1="156" x2="207" y1="80.5" y2="80.5" class="net_130,131,132,133,134,135,136,137,138,139,140,141,142,143,144,145,146,147,148,149,150,151,152,153,154,155,156,157,158,159,160,161"/>
  <line x1="207" x2="207" y1="80.5" y2="100.5" class="net_130,131,132,133,134,135,136,137,138,139,140,141,142,143,144,145,146,147,148,149,150,151,152,153,154,155,156,157,158,159,160,161"/>
  <line x1="207" x2="247" y1="100.5" y2="100.5" class="net_130,131,132,133,134,135,136,137,138,139,140,141,142,143,144,145,146,147,148,149,150,151,152,153,154,155,156,157,158,159,160,161"/>
  <line x1="156" x2="247" y1="120.5" y2="120.5" class="net_162"/>
  <line x1="156" x2="247" y1="140.5" y2="140.5" class="net_98,99,100,101,102,103,104,105,106,107,108,109,110,111,112,113,114,115,116,117,118,119,120,121,122,123,124,125,126,127,128,129"/>
  <line x1="156" x2="197" y1="100.5" y2="100.5" class="net_34,35,36,37,38,39,40,41,42,43,44,45,46,47,48,49,50,51,52,53,54,55,56,57,58,59,60,61,62,63,64,65"/>
  <line x1="197" x2="197" y1="100.5" y2="32.5" class="net_34,35,36,37,38,39,40,41,42,43,44,45,46,47,48,49,50,51,52,53,54,55,56,57,58,59,60,61,62,63,64,65"/>
  <line x1="197" x2="247" y1="32.5" y2="32.5" class="net_34,35,36,37,38,39,40,41,42,43,44,45,46,47,48,49,50,51,52,53,54,55,56,57,58,59,60,61,62,63,64,65"/>
</svg>
